<svg xmlns="http://www.w3.org/2000/svg" xmlns:xlink="http://www.w3.org/1999/xlink" width="200" zoomAndPan="magnify" viewBox="0 0 150 74.999997" height="100" preserveAspectRatio="xMidYMid meet" version="1.0"><defs><g/><clipPath id="fe5a098818"><path d="M 0.238281 0.921875 L 26.398438 0.921875 L 26.398438 16.519531 L 0.238281 16.519531 Z M 0.238281 0.921875 " clip-rule="nonzero"/></clipPath><clipPath id="749ced0b0a"><path d="M 14.175781 2.160156 L 19.722656 2.160156 L 19.722656 7.710938 L 14.175781 7.710938 Z M 14.175781 2.160156 " clip-rule="nonzero"/></clipPath><clipPath id="522242e0e3"><path d="M 16.949219 2.160156 C 15.417969 2.160156 14.175781 3.402344 14.175781 4.933594 C 14.175781 6.46875 15.417969 7.710938 16.949219 7.710938 C 18.480469 7.710938 19.722656 6.46875 19.722656 4.933594 C 19.722656 3.402344 18.480469 2.160156 16.949219 2.160156 Z M 16.949219 2.160156 " clip-rule="nonzero"/></clipPath><clipPath id="cef1deb5bd"><path d="M 0.175781 0.160156 L 5.722656 0.160156 L 5.722656 5.710938 L 0.175781 5.710938 Z M 0.175781 0.160156 " clip-rule="nonzero"/></clipPath><clipPath id="ee642e8c75"><path d="M 2.949219 0.160156 C 1.417969 0.160156 0.175781 1.402344 0.175781 2.933594 C 0.175781 4.46875 1.417969 5.710938 2.949219 5.710938 C 4.480469 5.710938 5.722656 4.46875 5.722656 2.933594 C 5.722656 1.402344 4.480469 0.160156 2.949219 0.160156 Z M 2.949219 0.160156 " clip-rule="nonzero"/></clipPath><clipPath id="25e8a09bf3"><rect x="0" width="6" y="0" height="6"/></clipPath><clipPath id="8eca6d43ee"><path d="M 9.875 9.613281 L 15.421875 9.613281 L 15.421875 15.160156 L 9.875 15.160156 Z M 9.875 9.613281 " clip-rule="nonzero"/></clipPath><clipPath id="22310bacf7"><path d="M 12.648438 9.613281 C 11.113281 9.613281 9.875 10.855469 9.875 12.386719 C 9.875 13.917969 11.113281 15.160156 12.648438 15.160156 C 14.179688 15.160156 15.421875 13.917969 15.421875 12.386719 C 15.421875 10.855469 14.179688 9.613281 12.648438 9.613281 Z M 12.648438 9.613281 " clip-rule="nonzero"/></clipPath><clipPath id="be335aea6e"><path d="M 0.875 0.613281 L 6.421875 0.613281 L 6.421875 6.160156 L 0.875 6.160156 Z M 0.875 0.613281 " clip-rule="nonzero"/></clipPath><clipPath id="302a2a0871"><path d="M 3.648438 0.613281 C 2.113281 0.613281 0.875 1.855469 0.875 3.386719 C 0.875 4.917969 2.113281 6.160156 3.648438 6.160156 C 5.179688 6.160156 6.421875 4.917969 6.421875 3.386719 C 6.421875 1.855469 5.179688 0.613281 3.648438 0.613281 Z M 3.648438 0.613281 " clip-rule="nonzero"/></clipPath><clipPath id="8ea742934a"><rect x="0" width="7" y="0" height="7"/></clipPath><clipPath id="65522b85f6"><path d="M 0.238281 0.921875 L 26.398438 0.921875 L 26.398438 16.519531 L 0.238281 16.519531 Z M 0.238281 0.921875 " clip-rule="nonzero"/></clipPath><clipPath id="4ca4235402"><path d="M 5.800781 2.160156 L 11.351562 2.160156 L 11.351562 7.710938 L 5.800781 7.710938 Z M 5.800781 2.160156 " clip-rule="nonzero"/></clipPath><clipPath id="a0312032cb"><path d="M 8.578125 2.160156 C 7.042969 2.160156 5.800781 3.402344 5.800781 4.933594 C 5.800781 6.46875 7.042969 7.710938 8.578125 7.710938 C 10.109375 7.710938 11.351562 6.46875 11.351562 4.933594 C 11.351562 3.402344 10.109375 2.160156 8.578125 2.160156 Z M 8.578125 2.160156 " clip-rule="nonzero"/></clipPath><clipPath id="42ed739e68"><path d="M 0.800781 0.160156 L 6.351562 0.160156 L 6.351562 5.710938 L 0.800781 5.710938 Z M 0.800781 0.160156 " clip-rule="nonzero"/></clipPath><clipPath id="55c8b0a2b9"><path d="M 3.578125 0.160156 C 2.042969 0.160156 0.800781 1.402344 0.800781 2.933594 C 0.800781 4.46875 2.042969 5.710938 3.578125 5.710938 C 5.109375 5.710938 6.351562 4.46875 6.351562 2.933594 C 6.351562 1.402344 5.109375 0.160156 3.578125 0.160156 Z M 3.578125 0.160156 " clip-rule="nonzero"/></clipPath><clipPath id="d64005e47c"><rect x="0" width="7" y="0" height="6"/></clipPath><clipPath id="0c36769535"><path d="M 1.5 9.613281 L 7.046875 9.613281 L 7.046875 15.160156 L 1.5 15.160156 Z M 1.5 9.613281 " clip-rule="nonzero"/></clipPath><clipPath id="935fd2f083"><path d="M 4.273438 9.613281 C 2.742188 9.613281 1.5 10.855469 1.5 12.386719 C 1.5 13.917969 2.742188 15.160156 4.273438 15.160156 C 5.804688 15.160156 7.046875 13.917969 7.046875 12.386719 C 7.046875 10.855469 5.804688 9.613281 4.273438 9.613281 Z M 4.273438 9.613281 " clip-rule="nonzero"/></clipPath><clipPath id="2893097726"><path d="M 0.5 0.613281 L 6.046875 0.613281 L 6.046875 6.160156 L 0.5 6.160156 Z M 0.5 0.613281 " clip-rule="nonzero"/></clipPath><clipPath id="2330426044"><path d="M 3.273438 0.613281 C 1.742188 0.613281 0.5 1.855469 0.5 3.386719 C 0.5 4.917969 1.742188 6.160156 3.273438 6.160156 C 4.804688 6.160156 6.046875 4.917969 6.046875 3.386719 C 6.046875 1.855469 4.804688 0.613281 3.273438 0.613281 Z M 3.273438 0.613281 " clip-rule="nonzero"/></clipPath><clipPath id="a911064302"><rect x="0" width="7" y="0" height="7"/></clipPath><clipPath id="a8a733a6f4"><path d="M 19.261719 7.714844 L 26.296875 7.714844 L 26.296875 14.75 L 19.261719 14.75 Z M 19.261719 7.714844 " clip-rule="nonzero"/></clipPath><clipPath id="1d3880aedf"><path d="M 22.78125 7.714844 C 20.839844 7.714844 19.261719 9.292969 19.261719 11.234375 C 19.261719 13.175781 20.839844 14.75 22.78125 14.75 C 24.722656 14.75 26.296875 13.175781 26.296875 11.234375 C 26.296875 9.292969 24.722656 7.714844 22.78125 7.714844 Z M 22.78125 7.714844 " clip-rule="nonzero"/></clipPath><clipPath id="dc6197519a"><path d="M 0.261719 0.714844 L 7.296875 0.714844 L 7.296875 7.75 L 0.261719 7.75 Z M 0.261719 0.714844 " clip-rule="nonzero"/></clipPath><clipPath id="f9bd6ddc09"><path d="M 3.78125 0.714844 C 1.839844 0.714844 0.261719 2.292969 0.261719 4.234375 C 0.261719 6.175781 1.839844 7.75 3.78125 7.75 C 5.722656 7.75 7.296875 6.175781 7.296875 4.234375 C 7.296875 2.292969 5.722656 0.714844 3.78125 0.714844 Z M 3.78125 0.714844 " clip-rule="nonzero"/></clipPath><clipPath id="c81a7b8a23"><rect x="0" width="8" y="0" height="8"/></clipPath><clipPath id="bd049e5e11"><path d="M 21.113281 3.566406 L 24.765625 3.566406 L 24.765625 7.21875 L 21.113281 7.21875 Z M 21.113281 3.566406 " clip-rule="nonzero"/></clipPath><clipPath id="3d615b156a"><path d="M 22.9375 3.566406 C 21.929688 3.566406 21.113281 4.386719 21.113281 5.394531 C 21.113281 6.402344 21.929688 7.21875 22.9375 7.21875 C 23.945312 7.21875 24.765625 6.402344 24.765625 5.394531 C 24.765625 4.386719 23.945312 3.566406 22.9375 3.566406 Z M 22.9375 3.566406 " clip-rule="nonzero"/></clipPath><clipPath id="f1282fbb82"><path d="M 0.113281 0.566406 L 3.765625 0.566406 L 3.765625 4.21875 L 0.113281 4.21875 Z M 0.113281 0.566406 " clip-rule="nonzero"/></clipPath><clipPath id="74f1386a10"><path d="M 1.9375 0.566406 C 0.929688 0.566406 0.113281 1.386719 0.113281 2.394531 C 0.113281 3.402344 0.929688 4.21875 1.9375 4.21875 C 2.945312 4.21875 3.765625 3.402344 3.765625 2.394531 C 3.765625 1.386719 2.945312 0.566406 1.9375 0.566406 Z M 1.9375 0.566406 " clip-rule="nonzero"/></clipPath><clipPath id="41998483ed"><rect x="0" width="4" y="0" height="5"/></clipPath><clipPath id="c7c56b27c0"><rect x="0" width="27" y="0" height="17"/></clipPath></defs><g transform="matrix(1, 0, 0, 1, 6, 31)"><g clip-path="url(#c7c56b27c0)"><g clip-path="url(#fe5a098818)"><path stroke-linecap="butt" transform="matrix(-0.288122, 0.499042, -0.499042, -0.288122, 19.439993, 6.378681)" fill="none" stroke-linejoin="miter" d="M -0.00131759 4.999699 L 14.934953 5.002141 " stroke="#ea3727" stroke-width="10" stroke-opacity="1" stroke-miterlimit="4"/></g><g clip-path="url(#749ced0b0a)"><g clip-path="url(#522242e0e3)"><g transform="matrix(1, 0, 0, 1, 14, 2)"><g clip-path="url(#25e8a09bf3)"><g clip-path="url(#cef1deb5bd)"><g clip-path="url(#ee642e8c75)"><path fill="#ea3727" d="M 0.175781 0.160156 L 5.722656 0.160156 L 5.722656 5.710938 L 0.175781 5.710938 Z M 0.175781 0.160156 " fill-opacity="1" fill-rule="nonzero"/></g></g></g></g></g></g><g clip-path="url(#8eca6d43ee)"><g clip-path="url(#22310bacf7)"><g transform="matrix(1, 0, 0, 1, 9, 9)"><g clip-path="url(#8ea742934a)"><g clip-path="url(#be335aea6e)"><g clip-path="url(#302a2a0871)"><path fill="#ea3727" d="M 0.875 0.613281 L 6.421875 0.613281 L 6.421875 6.160156 L 0.875 6.160156 Z M 0.875 0.613281 " fill-opacity="1" fill-rule="nonzero"/></g></g></g></g></g></g><g clip-path="url(#65522b85f6)"><path stroke-linecap="butt" transform="matrix(-0.288122, 0.499042, -0.499042, -0.288122, 11.066892, 6.378681)" fill="none" stroke-linejoin="miter" d="M 0.000330081 5.002553 L 14.933211 4.999124 " stroke="#000000" stroke-width="10" stroke-opacity="1" stroke-miterlimit="4"/></g><g clip-path="url(#4ca4235402)"><g clip-path="url(#a0312032cb)"><g transform="matrix(1, 0, 0, 1, 5, 2)"><g clip-path="url(#d64005e47c)"><g clip-path="url(#42ed739e68)"><g clip-path="url(#55c8b0a2b9)"><path fill="#000000" d="M 0.800781 0.160156 L 6.351562 0.160156 L 6.351562 5.710938 L 0.800781 5.710938 Z M 0.800781 0.160156 " fill-opacity="1" fill-rule="nonzero"/></g></g></g></g></g></g><g clip-path="url(#0c36769535)"><g clip-path="url(#935fd2f083)"><g transform="matrix(1, 0, 0, 1, 1, 9)"><g clip-path="url(#a911064302)"><g clip-path="url(#2893097726)"><g clip-path="url(#2330426044)"><path fill="#000000" d="M 0.5 0.613281 L 6.046875 0.613281 L 6.046875 6.160156 L 0.5 6.160156 Z M 0.5 0.613281 " fill-opacity="1" fill-rule="nonzero"/></g></g></g></g></g></g><g clip-path="url(#a8a733a6f4)"><g clip-path="url(#1d3880aedf)"><g transform="matrix(1, 0, 0, 1, 19, 7)"><g clip-path="url(#c81a7b8a23)"><g clip-path="url(#dc6197519a)"><g clip-path="url(#f9bd6ddc09)"><path fill="#000000" d="M 0.261719 0.714844 L 7.296875 0.714844 L 7.296875 7.75 L 0.261719 7.75 Z M 0.261719 0.714844 " fill-opacity="1" fill-rule="nonzero"/></g></g></g></g></g></g><g clip-path="url(#bd049e5e11)"><g clip-path="url(#3d615b156a)"><g transform="matrix(1, 0, 0, 1, 21, 3)"><g clip-path="url(#41998483ed)"><g clip-path="url(#f1282fbb82)"><g clip-path="url(#74f1386a10)"><path fill="#000000" d="M 0.113281 0.566406 L 3.765625 0.566406 L 3.765625 4.21875 L 0.113281 4.21875 Z M 0.113281 0.566406 " fill-opacity="1" fill-rule="nonzero"/></g></g></g></g></g></g></g></g><g fill="#000000" fill-opacity="1"><g transform="translate(35.983989, 42.843987)"><g><path d="M 8.984375 0 L 8.96875 -5.234375 L 6.390625 -0.921875 L 5.484375 -0.921875 L 2.9375 -5.125 L 2.9375 0 L 1.03125 0 L 1.03125 -8.734375 L 2.703125 -8.734375 L 5.96875 -3.296875 L 9.1875 -8.734375 L 10.84375 -8.734375 L 10.875 0 Z M 8.984375 0 "/></g></g></g><g fill="#000000" fill-opacity="1"><g transform="translate(47.431616, 42.843987)"><g><path d="M 7.46875 -3.328125 C 7.46875 -3.304688 7.457031 -3.132812 7.4375 -2.8125 L 2.359375 -2.8125 C 2.453125 -2.394531 2.664062 -2.0625 3 -1.8125 C 3.34375 -1.570312 3.769531 -1.453125 4.28125 -1.453125 C 4.625 -1.453125 4.929688 -1.503906 5.203125 -1.609375 C 5.472656 -1.710938 5.722656 -1.878906 5.953125 -2.109375 L 7 -0.984375 C 6.363281 -0.265625 5.441406 0.09375 4.234375 0.09375 C 3.472656 0.09375 2.800781 -0.0507812 2.21875 -0.34375 C 1.632812 -0.632812 1.1875 -1.039062 0.875 -1.5625 C 0.5625 -2.09375 0.40625 -2.691406 0.40625 -3.359375 C 0.40625 -4.015625 0.554688 -4.601562 0.859375 -5.125 C 1.171875 -5.65625 1.597656 -6.066406 2.140625 -6.359375 C 2.691406 -6.660156 3.304688 -6.8125 3.984375 -6.8125 C 4.640625 -6.8125 5.234375 -6.664062 5.765625 -6.375 C 6.296875 -6.09375 6.710938 -5.6875 7.015625 -5.15625 C 7.316406 -4.632812 7.46875 -4.023438 7.46875 -3.328125 Z M 3.984375 -5.34375 C 3.546875 -5.34375 3.175781 -5.21875 2.875 -4.96875 C 2.582031 -4.71875 2.398438 -4.375 2.328125 -3.9375 L 5.640625 -3.9375 C 5.566406 -4.363281 5.378906 -4.703125 5.078125 -4.953125 C 4.785156 -5.210938 4.421875 -5.34375 3.984375 -5.34375 Z M 3.984375 -5.34375 "/></g></g></g><g fill="#000000" fill-opacity="1"><g transform="translate(54.843153, 42.843987)"><g><path d="M 4.96875 -6.8125 C 5.800781 -6.8125 6.472656 -6.5625 6.984375 -6.0625 C 7.492188 -5.5625 7.75 -4.820312 7.75 -3.84375 L 7.75 0 L 5.8125 0 L 5.8125 -3.546875 C 5.8125 -4.078125 5.691406 -4.472656 5.453125 -4.734375 C 5.222656 -4.992188 4.890625 -5.125 4.453125 -5.125 C 3.960938 -5.125 3.570312 -4.972656 3.28125 -4.671875 C 2.988281 -4.367188 2.84375 -3.914062 2.84375 -3.3125 L 2.84375 0 L 0.890625 0 L 0.890625 -6.703125 L 2.75 -6.703125 L 2.75 -5.921875 C 3.007812 -6.203125 3.332031 -6.421875 3.71875 -6.578125 C 4.101562 -6.734375 4.519531 -6.8125 4.96875 -6.8125 Z M 4.96875 -6.8125 "/></g></g></g><g fill="#000000" fill-opacity="1"><g transform="translate(63.002115, 42.843987)"><g><path d="M 5.21875 -0.328125 C 5.03125 -0.179688 4.796875 -0.0703125 4.515625 0 C 4.242188 0.0625 3.953125 0.09375 3.640625 0.09375 C 2.835938 0.09375 2.21875 -0.109375 1.78125 -0.515625 C 1.351562 -0.921875 1.140625 -1.519531 1.140625 -2.3125 L 1.140625 -5.0625 L 0.09375 -5.0625 L 0.09375 -6.5625 L 1.140625 -6.5625 L 1.140625 -8.1875 L 3.078125 -8.1875 L 3.078125 -6.5625 L 4.75 -6.5625 L 4.75 -5.0625 L 3.078125 -5.0625 L 3.078125 -2.328125 C 3.078125 -2.046875 3.148438 -1.828125 3.296875 -1.671875 C 3.441406 -1.523438 3.648438 -1.453125 3.921875 -1.453125 C 4.222656 -1.453125 4.484375 -1.535156 4.703125 -1.703125 Z M 5.21875 -0.328125 "/></g></g></g><g fill="#000000" fill-opacity="1"><g transform="translate(67.760156, 42.843987)"><g><path d="M 4.09375 0.09375 C 3.382812 0.09375 2.75 -0.0507812 2.1875 -0.34375 C 1.625 -0.632812 1.1875 -1.039062 0.875 -1.5625 C 0.5625 -2.09375 0.40625 -2.691406 0.40625 -3.359375 C 0.40625 -4.023438 0.5625 -4.617188 0.875 -5.140625 C 1.1875 -5.660156 1.625 -6.066406 2.1875 -6.359375 C 2.75 -6.660156 3.382812 -6.8125 4.09375 -6.8125 C 4.800781 -6.8125 5.429688 -6.660156 5.984375 -6.359375 C 6.546875 -6.066406 6.984375 -5.660156 7.296875 -5.140625 C 7.609375 -4.617188 7.765625 -4.023438 7.765625 -3.359375 C 7.765625 -2.691406 7.609375 -2.09375 7.296875 -1.5625 C 6.984375 -1.039062 6.546875 -0.632812 5.984375 -0.34375 C 5.429688 -0.0507812 4.800781 0.09375 4.09375 0.09375 Z M 4.09375 -1.5 C 4.59375 -1.5 5 -1.664062 5.3125 -2 C 5.632812 -2.332031 5.796875 -2.785156 5.796875 -3.359375 C 5.796875 -3.921875 5.632812 -4.367188 5.3125 -4.703125 C 5 -5.046875 4.59375 -5.21875 4.09375 -5.21875 C 3.59375 -5.21875 3.179688 -5.046875 2.859375 -4.703125 C 2.535156 -4.367188 2.375 -3.921875 2.375 -3.359375 C 2.375 -2.785156 2.535156 -2.332031 2.859375 -2 C 3.179688 -1.664062 3.59375 -1.5 4.09375 -1.5 Z M 4.09375 -1.5 "/></g></g></g><g fill="#000000" fill-opacity="1"><g transform="translate(75.470669, 42.843987)"><g><path d="M 2.75 -5.828125 C 2.988281 -6.148438 3.304688 -6.394531 3.703125 -6.5625 C 4.097656 -6.726562 4.550781 -6.8125 5.0625 -6.8125 L 5.0625 -5.015625 C 4.84375 -5.023438 4.695312 -5.03125 4.625 -5.03125 C 4.070312 -5.03125 3.632812 -4.875 3.3125 -4.5625 C 3 -4.257812 2.84375 -3.796875 2.84375 -3.171875 L 2.84375 0 L 0.890625 0 L 0.890625 -6.703125 L 2.75 -6.703125 Z M 2.75 -5.828125 "/></g></g></g><g fill="#000000" fill-opacity="1"><g transform="translate(80.278606, 42.843987)"><g><path d="M 7.46875 -3.328125 C 7.46875 -3.304688 7.457031 -3.132812 7.4375 -2.8125 L 2.359375 -2.8125 C 2.453125 -2.394531 2.664062 -2.0625 3 -1.8125 C 3.34375 -1.570312 3.769531 -1.453125 4.28125 -1.453125 C 4.625 -1.453125 4.929688 -1.503906 5.203125 -1.609375 C 5.472656 -1.710938 5.722656 -1.878906 5.953125 -2.109375 L 7 -0.984375 C 6.363281 -0.265625 5.441406 0.09375 4.234375 0.09375 C 3.472656 0.09375 2.800781 -0.0507812 2.21875 -0.34375 C 1.632812 -0.632812 1.1875 -1.039062 0.875 -1.5625 C 0.5625 -2.09375 0.40625 -2.691406 0.40625 -3.359375 C 0.40625 -4.015625 0.554688 -4.601562 0.859375 -5.125 C 1.171875 -5.65625 1.597656 -6.066406 2.140625 -6.359375 C 2.691406 -6.660156 3.304688 -6.8125 3.984375 -6.8125 C 4.640625 -6.8125 5.234375 -6.664062 5.765625 -6.375 C 6.296875 -6.09375 6.710938 -5.6875 7.015625 -5.15625 C 7.316406 -4.632812 7.46875 -4.023438 7.46875 -3.328125 Z M 3.984375 -5.34375 C 3.546875 -5.34375 3.175781 -5.21875 2.875 -4.96875 C 2.582031 -4.71875 2.398438 -4.375 2.328125 -3.9375 L 5.640625 -3.9375 C 5.566406 -4.363281 5.378906 -4.703125 5.078125 -4.953125 C 4.785156 -5.210938 4.421875 -5.34375 3.984375 -5.34375 Z M 3.984375 -5.34375 "/></g></g></g><g fill="#000000" fill-opacity="1"><g transform="translate(87.690143, 42.843987)"><g/></g></g><g fill="#000000" fill-opacity="1"><g transform="translate(90.766623, 42.843987)"><g><path d="M 3.90625 0.15625 C 3.21875 0.15625 2.550781 0.0625 1.90625 -0.125 C 1.257812 -0.3125 0.738281 -0.554688 0.34375 -0.859375 L 1.03125 -2.375 C 1.40625 -2.101562 1.847656 -1.882812 2.359375 -1.71875 C 2.878906 -1.550781 3.398438 -1.46875 3.921875 -1.46875 C 4.492188 -1.46875 4.914062 -1.550781 5.1875 -1.71875 C 5.457031 -1.894531 5.59375 -2.125 5.59375 -2.40625 C 5.59375 -2.613281 5.507812 -2.785156 5.34375 -2.921875 C 5.1875 -3.054688 4.984375 -3.164062 4.734375 -3.25 C 4.484375 -3.332031 4.140625 -3.425781 3.703125 -3.53125 C 3.035156 -3.6875 2.488281 -3.84375 2.0625 -4 C 1.644531 -4.15625 1.285156 -4.40625 0.984375 -4.75 C 0.679688 -5.101562 0.53125 -5.570312 0.53125 -6.15625 C 0.53125 -6.664062 0.664062 -7.125 0.9375 -7.53125 C 1.207031 -7.945312 1.617188 -8.273438 2.171875 -8.515625 C 2.722656 -8.753906 3.398438 -8.875 4.203125 -8.875 C 4.753906 -8.875 5.296875 -8.804688 5.828125 -8.671875 C 6.367188 -8.546875 6.835938 -8.359375 7.234375 -8.109375 L 6.609375 -6.578125 C 5.804688 -7.023438 5 -7.25 4.1875 -7.25 C 3.625 -7.25 3.207031 -7.15625 2.9375 -6.96875 C 2.664062 -6.789062 2.53125 -6.554688 2.53125 -6.265625 C 2.53125 -5.960938 2.6875 -5.738281 3 -5.59375 C 3.3125 -5.445312 3.785156 -5.300781 4.421875 -5.15625 C 5.085938 -5 5.632812 -4.84375 6.0625 -4.6875 C 6.488281 -4.53125 6.851562 -4.28125 7.15625 -3.9375 C 7.457031 -3.59375 7.609375 -3.132812 7.609375 -2.5625 C 7.609375 -2.0625 7.46875 -1.601562 7.1875 -1.1875 C 6.90625 -0.78125 6.484375 -0.453125 5.921875 -0.203125 C 5.367188 0.0351562 4.695312 0.15625 3.90625 0.15625 Z M 3.90625 0.15625 "/></g></g></g><g fill="#000000" fill-opacity="1"><g transform="translate(98.265364, 42.843987)"><g><path d="M 4.09375 0.09375 C 3.382812 0.09375 2.75 -0.0507812 2.1875 -0.34375 C 1.625 -0.632812 1.1875 -1.039062 0.875 -1.5625 C 0.5625 -2.09375 0.40625 -2.691406 0.40625 -3.359375 C 0.40625 -4.023438 0.5625 -4.617188 0.875 -5.140625 C 1.1875 -5.660156 1.625 -6.066406 2.1875 -6.359375 C 2.75 -6.660156 3.382812 -6.8125 4.09375 -6.8125 C 4.800781 -6.8125 5.429688 -6.660156 5.984375 -6.359375 C 6.546875 -6.066406 6.984375 -5.660156 7.296875 -5.140625 C 7.609375 -4.617188 7.765625 -4.023438 7.765625 -3.359375 C 7.765625 -2.691406 7.609375 -2.09375 7.296875 -1.5625 C 6.984375 -1.039062 6.546875 -0.632812 5.984375 -0.34375 C 5.429688 -0.0507812 4.800781 0.09375 4.09375 0.09375 Z M 4.09375 -1.5 C 4.59375 -1.5 5 -1.664062 5.3125 -2 C 5.632812 -2.332031 5.796875 -2.785156 5.796875 -3.359375 C 5.796875 -3.921875 5.632812 -4.367188 5.3125 -4.703125 C 5 -5.046875 4.59375 -5.21875 4.09375 -5.21875 C 3.59375 -5.21875 3.179688 -5.046875 2.859375 -4.703125 C 2.535156 -4.367188 2.375 -3.921875 2.375 -3.359375 C 2.375 -2.785156 2.535156 -2.332031 2.859375 -2 C 3.179688 -1.664062 3.59375 -1.5 4.09375 -1.5 Z M 4.09375 -1.5 "/></g></g></g><g fill="#000000" fill-opacity="1"><g transform="translate(105.975877, 42.843987)"><g><path d="M 0.890625 -9.25 L 2.84375 -9.25 L 2.84375 0 L 0.890625 0 Z M 0.890625 -9.25 "/></g></g></g><g fill="#000000" fill-opacity="1"><g transform="translate(109.276582, 42.843987)"><g><path d="M 7.65625 -6.703125 L 7.65625 0 L 5.8125 0 L 5.8125 -0.796875 C 5.550781 -0.503906 5.242188 -0.28125 4.890625 -0.125 C 4.535156 0.0195312 4.148438 0.09375 3.734375 0.09375 C 2.847656 0.09375 2.144531 -0.15625 1.625 -0.65625 C 1.113281 -1.164062 0.859375 -1.921875 0.859375 -2.921875 L 0.859375 -6.703125 L 2.8125 -6.703125 L 2.8125 -3.203125 C 2.8125 -2.117188 3.265625 -1.578125 4.171875 -1.578125 C 4.628906 -1.578125 5 -1.726562 5.28125 -2.03125 C 5.5625 -2.34375 5.703125 -2.796875 5.703125 -3.390625 L 5.703125 -6.703125 Z M 7.65625 -6.703125 "/></g></g></g><g fill="#000000" fill-opacity="1"><g transform="translate(117.385716, 42.843987)"><g><path d="M 5.21875 -0.328125 C 5.03125 -0.179688 4.796875 -0.0703125 4.515625 0 C 4.242188 0.0625 3.953125 0.09375 3.640625 0.09375 C 2.835938 0.09375 2.21875 -0.109375 1.78125 -0.515625 C 1.351562 -0.921875 1.140625 -1.519531 1.140625 -2.3125 L 1.140625 -5.0625 L 0.09375 -5.0625 L 0.09375 -6.5625 L 1.140625 -6.5625 L 1.140625 -8.1875 L 3.078125 -8.1875 L 3.078125 -6.5625 L 4.75 -6.5625 L 4.75 -5.0625 L 3.078125 -5.0625 L 3.078125 -2.328125 C 3.078125 -2.046875 3.148438 -1.828125 3.296875 -1.671875 C 3.441406 -1.523438 3.648438 -1.453125 3.921875 -1.453125 C 4.222656 -1.453125 4.484375 -1.535156 4.703125 -1.703125 Z M 5.21875 -0.328125 "/></g></g></g><g fill="#000000" fill-opacity="1"><g transform="translate(122.355667, 42.843987)"><g><path d="M 0.890625 -6.703125 L 2.84375 -6.703125 L 2.84375 0 L 0.890625 0 Z M 1.875 -7.640625 C 1.507812 -7.640625 1.210938 -7.742188 0.984375 -7.953125 C 0.765625 -8.160156 0.65625 -8.421875 0.65625 -8.734375 C 0.65625 -9.035156 0.765625 -9.289062 0.984375 -9.5 C 1.210938 -9.707031 1.507812 -9.8125 1.875 -9.8125 C 2.226562 -9.8125 2.515625 -9.710938 2.734375 -9.515625 C 2.960938 -9.316406 3.078125 -9.066406 3.078125 -8.765625 C 3.078125 -8.441406 2.960938 -8.171875 2.734375 -7.953125 C 2.515625 -7.742188 2.226562 -7.640625 1.875 -7.640625 Z M 1.875 -7.640625 "/></g></g></g><g fill="#000000" fill-opacity="1"><g transform="translate(125.656372, 42.843987)"><g><path d="M 4.09375 0.09375 C 3.382812 0.09375 2.75 -0.0507812 2.1875 -0.34375 C 1.625 -0.632812 1.1875 -1.039062 0.875 -1.5625 C 0.5625 -2.09375 0.40625 -2.691406 0.40625 -3.359375 C 0.40625 -4.023438 0.5625 -4.617188 0.875 -5.140625 C 1.1875 -5.660156 1.625 -6.066406 2.1875 -6.359375 C 2.75 -6.660156 3.382812 -6.8125 4.09375 -6.8125 C 4.800781 -6.8125 5.429688 -6.660156 5.984375 -6.359375 C 6.546875 -6.066406 6.984375 -5.660156 7.296875 -5.140625 C 7.609375 -4.617188 7.765625 -4.023438 7.765625 -3.359375 C 7.765625 -2.691406 7.609375 -2.09375 7.296875 -1.5625 C 6.984375 -1.039062 6.546875 -0.632812 5.984375 -0.34375 C 5.429688 -0.0507812 4.800781 0.09375 4.09375 0.09375 Z M 4.09375 -1.5 C 4.59375 -1.5 5 -1.664062 5.3125 -2 C 5.632812 -2.332031 5.796875 -2.785156 5.796875 -3.359375 C 5.796875 -3.921875 5.632812 -4.367188 5.3125 -4.703125 C 5 -5.046875 4.59375 -5.21875 4.09375 -5.21875 C 3.59375 -5.21875 3.179688 -5.046875 2.859375 -4.703125 C 2.535156 -4.367188 2.375 -3.921875 2.375 -3.359375 C 2.375 -2.785156 2.535156 -2.332031 2.859375 -2 C 3.179688 -1.664062 3.59375 -1.5 4.09375 -1.5 Z M 4.09375 -1.5 "/></g></g></g><g fill="#000000" fill-opacity="1"><g transform="translate(133.366885, 42.843987)"><g><path d="M 4.96875 -6.8125 C 5.800781 -6.8125 6.472656 -6.5625 6.984375 -6.0625 C 7.492188 -5.5625 7.75 -4.820312 7.75 -3.84375 L 7.75 0 L 5.8125 0 L 5.8125 -3.546875 C 5.8125 -4.078125 5.691406 -4.472656 5.453125 -4.734375 C 5.222656 -4.992188 4.890625 -5.125 4.453125 -5.125 C 3.960938 -5.125 3.570312 -4.972656 3.28125 -4.671875 C 2.988281 -4.367188 2.84375 -3.914062 2.84375 -3.3125 L 2.84375 0 L 0.890625 0 L 0.890625 -6.703125 L 2.75 -6.703125 L 2.75 -5.921875 C 3.007812 -6.203125 3.332031 -6.421875 3.71875 -6.578125 C 4.101562 -6.734375 4.519531 -6.8125 4.96875 -6.8125 Z M 4.96875 -6.8125 "/></g></g></g></svg>