<svg xmlns="http://www.w3.org/2000/svg" xmlns:xlink="http://www.w3.org/1999/xlink" width="500" zoomAndPan="magnify" viewBox="0 0 375 374.999991" height="500" preserveAspectRatio="xMidYMid meet" version="1.0"><defs><g/><clipPath id="051f98484b"><path d="M 0.558594 0.601562 L 63.199219 0.601562 L 63.199219 37.800781 L 0.558594 37.800781 Z M 0.558594 0.601562 " clip-rule="nonzero"/></clipPath><clipPath id="b73b4a4232"><path d="M 33.9375 3.609375 L 47.261719 3.609375 L 47.261719 16.929688 L 33.9375 16.929688 Z M 33.9375 3.609375 " clip-rule="nonzero"/></clipPath><clipPath id="c038acd10b"><path d="M 40.601562 3.609375 C 36.921875 3.609375 33.9375 6.589844 33.9375 10.269531 C 33.9375 13.949219 36.921875 16.929688 40.601562 16.929688 C 44.277344 16.929688 47.261719 13.949219 47.261719 10.269531 C 47.261719 6.589844 44.277344 3.609375 40.601562 3.609375 Z M 40.601562 3.609375 " clip-rule="nonzero"/></clipPath><clipPath id="2edd2c9af6"><path d="M 0.9375 0.609375 L 14.261719 0.609375 L 14.261719 13.929688 L 0.9375 13.929688 Z M 0.9375 0.609375 " clip-rule="nonzero"/></clipPath><clipPath id="ae6529e199"><path d="M 7.601562 0.609375 C 3.921875 0.609375 0.9375 3.589844 0.9375 7.269531 C 0.9375 10.949219 3.921875 13.929688 7.601562 13.929688 C 11.277344 13.929688 14.261719 10.949219 14.261719 7.269531 C 14.261719 3.589844 11.277344 0.609375 7.601562 0.609375 Z M 7.601562 0.609375 " clip-rule="nonzero"/></clipPath><clipPath id="d364d072f7"><rect x="0" width="15" y="0" height="14"/></clipPath><clipPath id="61618c8a60"><path d="M 23.605469 21.503906 L 36.929688 21.503906 L 36.929688 34.824219 L 23.605469 34.824219 Z M 23.605469 21.503906 " clip-rule="nonzero"/></clipPath><clipPath id="8e3ac2b02b"><path d="M 30.269531 21.503906 C 26.589844 21.503906 23.605469 24.484375 23.605469 28.164062 C 23.605469 31.84375 26.589844 34.824219 30.269531 34.824219 C 33.945312 34.824219 36.929688 31.84375 36.929688 28.164062 C 36.929688 24.484375 33.945312 21.503906 30.269531 21.503906 Z M 30.269531 21.503906 " clip-rule="nonzero"/></clipPath><clipPath id="4efe9db249"><path d="M 0.605469 0.503906 L 13.929688 0.503906 L 13.929688 13.824219 L 0.605469 13.824219 Z M 0.605469 0.503906 " clip-rule="nonzero"/></clipPath><clipPath id="1e2390b58d"><path d="M 7.269531 0.503906 C 3.589844 0.503906 0.605469 3.484375 0.605469 7.164062 C 0.605469 10.84375 3.589844 13.824219 7.269531 13.824219 C 10.945312 13.824219 13.929688 10.84375 13.929688 7.164062 C 13.929688 3.484375 10.945312 0.503906 7.269531 0.503906 Z M 7.269531 0.503906 " clip-rule="nonzero"/></clipPath><clipPath id="2e88225d2d"><rect x="0" width="14" y="0" height="14"/></clipPath><clipPath id="62d7b4c1b5"><path d="M 0.558594 0.601562 L 63.199219 0.601562 L 63.199219 37.800781 L 0.558594 37.800781 Z M 0.558594 0.601562 " clip-rule="nonzero"/></clipPath><clipPath id="9668bb1d6e"><path d="M 13.832031 3.609375 L 27.15625 3.609375 L 27.15625 16.929688 L 13.832031 16.929688 Z M 13.832031 3.609375 " clip-rule="nonzero"/></clipPath><clipPath id="5a133d614f"><path d="M 20.492188 3.609375 C 16.8125 3.609375 13.832031 6.589844 13.832031 10.269531 C 13.832031 13.949219 16.8125 16.929688 20.492188 16.929688 C 24.171875 16.929688 27.15625 13.949219 27.15625 10.269531 C 27.15625 6.589844 24.171875 3.609375 20.492188 3.609375 Z M 20.492188 3.609375 " clip-rule="nonzero"/></clipPath><clipPath id="e974bcc323"><path d="M 0.832031 0.609375 L 14.15625 0.609375 L 14.15625 13.929688 L 0.832031 13.929688 Z M 0.832031 0.609375 " clip-rule="nonzero"/></clipPath><clipPath id="ae534a1578"><path d="M 7.492188 0.609375 C 3.8125 0.609375 0.832031 3.589844 0.832031 7.269531 C 0.832031 10.949219 3.8125 13.929688 7.492188 13.929688 C 11.171875 13.929688 14.15625 10.949219 14.15625 7.269531 C 14.15625 3.589844 11.171875 0.609375 7.492188 0.609375 Z M 7.492188 0.609375 " clip-rule="nonzero"/></clipPath><clipPath id="bbaae7630a"><rect x="0" width="15" y="0" height="14"/></clipPath><clipPath id="18d5a00f43"><path d="M 3.5 21.503906 L 16.824219 21.503906 L 16.824219 34.824219 L 3.5 34.824219 Z M 3.5 21.503906 " clip-rule="nonzero"/></clipPath><clipPath id="623864b09a"><path d="M 10.160156 21.503906 C 6.480469 21.503906 3.5 24.484375 3.5 28.164062 C 3.5 31.84375 6.480469 34.824219 10.160156 34.824219 C 13.839844 34.824219 16.824219 31.84375 16.824219 28.164062 C 16.824219 24.484375 13.839844 21.503906 10.160156 21.503906 Z M 10.160156 21.503906 " clip-rule="nonzero"/></clipPath><clipPath id="ed2911b5b2"><path d="M 0.5 0.503906 L 13.824219 0.503906 L 13.824219 13.824219 L 0.5 13.824219 Z M 0.5 0.503906 " clip-rule="nonzero"/></clipPath><clipPath id="8aca324d4a"><path d="M 7.160156 0.503906 C 3.480469 0.503906 0.5 3.484375 0.5 7.164062 C 0.5 10.84375 3.480469 13.824219 7.160156 13.824219 C 10.839844 13.824219 13.824219 10.84375 13.824219 7.164062 C 13.824219 3.484375 10.839844 0.503906 7.160156 0.503906 Z M 7.160156 0.503906 " clip-rule="nonzero"/></clipPath><clipPath id="d2c6d923e5"><rect x="0" width="14" y="0" height="14"/></clipPath><clipPath id="d2cb289804"><path d="M 46.15625 16.949219 L 63.046875 16.949219 L 63.046875 33.839844 L 46.15625 33.839844 Z M 46.15625 16.949219 " clip-rule="nonzero"/></clipPath><clipPath id="03c06f2c21"><path d="M 54.601562 16.949219 C 49.9375 16.949219 46.15625 20.730469 46.15625 25.394531 C 46.15625 30.058594 49.9375 33.839844 54.601562 33.839844 C 59.265625 33.839844 63.046875 30.058594 63.046875 25.394531 C 63.046875 20.730469 59.265625 16.949219 54.601562 16.949219 Z M 54.601562 16.949219 " clip-rule="nonzero"/></clipPath><clipPath id="525840f4f0"><path d="M 0.15625 0.949219 L 17.046875 0.949219 L 17.046875 17.839844 L 0.15625 17.839844 Z M 0.15625 0.949219 " clip-rule="nonzero"/></clipPath><clipPath id="5629f5f01c"><path d="M 8.601562 0.949219 C 3.9375 0.949219 0.15625 4.730469 0.15625 9.394531 C 0.15625 14.058594 3.9375 17.839844 8.601562 17.839844 C 13.265625 17.839844 17.046875 14.058594 17.046875 9.394531 C 17.046875 4.730469 13.265625 0.949219 8.601562 0.949219 Z M 8.601562 0.949219 " clip-rule="nonzero"/></clipPath><clipPath id="68d2fbb9b5"><rect x="0" width="18" y="0" height="18"/></clipPath><clipPath id="a19f9a0362"><path d="M 50.597656 6.984375 L 59.367188 6.984375 L 59.367188 15.753906 L 50.597656 15.753906 Z M 50.597656 6.984375 " clip-rule="nonzero"/></clipPath><clipPath id="fb1731e0f1"><path d="M 54.984375 6.984375 C 52.5625 6.984375 50.597656 8.949219 50.597656 11.367188 C 50.597656 13.789062 52.5625 15.753906 54.984375 15.753906 C 57.402344 15.753906 59.367188 13.789062 59.367188 11.367188 C 59.367188 8.949219 57.402344 6.984375 54.984375 6.984375 Z M 54.984375 6.984375 " clip-rule="nonzero"/></clipPath><clipPath id="6afaf5a210"><path d="M 0.597656 0.984375 L 9.367188 0.984375 L 9.367188 9.753906 L 0.597656 9.753906 Z M 0.597656 0.984375 " clip-rule="nonzero"/></clipPath><clipPath id="faba06a5ea"><path d="M 4.984375 0.984375 C 2.5625 0.984375 0.597656 2.949219 0.597656 5.367188 C 0.597656 7.789062 2.5625 9.753906 4.984375 9.753906 C 7.402344 9.753906 9.367188 7.789062 9.367188 5.367188 C 9.367188 2.949219 7.402344 0.984375 4.984375 0.984375 Z M 4.984375 0.984375 " clip-rule="nonzero"/></clipPath><clipPath id="0e0174d2b8"><rect x="0" width="10" y="0" height="10"/></clipPath><clipPath id="fc0a3ff99f"><rect x="0" width="64" y="0" height="38"/></clipPath><clipPath id="1d9087cc61"><rect x="0" width="233" y="0" height="38"/></clipPath></defs><g transform="matrix(1, 0, 0, 1, 34, 177)"><g clip-path="url(#fc0a3ff99f)"><g clip-path="url(#051f98484b)"><path stroke-linecap="butt" transform="matrix(-0.691885, 1.198381, -1.198381, -0.691885, 46.580424, 13.735329)" fill="none" stroke-linejoin="miter" d="M 0.000423854 4.99865 L 14.932904 4.999038 " stroke="#ea3727" stroke-width="10" stroke-opacity="1" stroke-miterlimit="4"/></g><g clip-path="url(#b73b4a4232)"><g clip-path="url(#c038acd10b)"><g transform="matrix(1, 0, 0, 1, 33, 3)"><g clip-path="url(#d364d072f7)"><g clip-path="url(#2edd2c9af6)"><g clip-path="url(#ae6529e199)"><path fill="#ea3727" d="M 0.9375 0.609375 L 14.261719 0.609375 L 14.261719 13.929688 L 0.9375 13.929688 Z M 0.9375 0.609375 " fill-opacity="1" fill-rule="nonzero"/></g></g></g></g></g></g><g clip-path="url(#61618c8a60)"><g clip-path="url(#8e3ac2b02b)"><g transform="matrix(1, 0, 0, 1, 23, 21)"><g clip-path="url(#2e88225d2d)"><g clip-path="url(#4efe9db249)"><g clip-path="url(#1e2390b58d)"><path fill="#ea3727" d="M 0.605469 0.503906 L 13.929688 0.503906 L 13.929688 13.824219 L 0.605469 13.824219 Z M 0.605469 0.503906 " fill-opacity="1" fill-rule="nonzero"/></g></g></g></g></g></g><g clip-path="url(#62d7b4c1b5)"><path stroke-linecap="butt" transform="matrix(-0.691885, 1.198381, -1.198381, -0.691885, 26.47357, 13.735329)" fill="none" stroke-linejoin="miter" d="M 0.00133476 5.000228 L 14.933815 5.000616 " stroke="#000000" stroke-width="10" stroke-opacity="1" stroke-miterlimit="4"/></g><g clip-path="url(#9668bb1d6e)"><g clip-path="url(#5a133d614f)"><g transform="matrix(1, 0, 0, 1, 13, 3)"><g clip-path="url(#bbaae7630a)"><g clip-path="url(#e974bcc323)"><g clip-path="url(#ae534a1578)"><path fill="#000000" d="M 0.832031 0.609375 L 14.15625 0.609375 L 14.15625 13.929688 L 0.832031 13.929688 Z M 0.832031 0.609375 " fill-opacity="1" fill-rule="nonzero"/></g></g></g></g></g></g><g clip-path="url(#18d5a00f43)"><g clip-path="url(#623864b09a)"><g transform="matrix(1, 0, 0, 1, 3, 21)"><g clip-path="url(#d2c6d923e5)"><g clip-path="url(#ed2911b5b2)"><g clip-path="url(#8aca324d4a)"><path fill="#000000" d="M 0.5 0.503906 L 13.824219 0.503906 L 13.824219 13.824219 L 0.5 13.824219 Z M 0.5 0.503906 " fill-opacity="1" fill-rule="nonzero"/></g></g></g></g></g></g><g clip-path="url(#d2cb289804)"><g clip-path="url(#03c06f2c21)"><g transform="matrix(1, 0, 0, 1, 46, 16)"><g clip-path="url(#68d2fbb9b5)"><g clip-path="url(#525840f4f0)"><g clip-path="url(#5629f5f01c)"><path fill="#000000" d="M 0.15625 0.949219 L 17.046875 0.949219 L 17.046875 17.839844 L 0.15625 17.839844 Z M 0.15625 0.949219 " fill-opacity="1" fill-rule="nonzero"/></g></g></g></g></g></g><g clip-path="url(#a19f9a0362)"><g clip-path="url(#fb1731e0f1)"><g transform="matrix(1, 0, 0, 1, 50, 6)"><g clip-path="url(#0e0174d2b8)"><g clip-path="url(#6afaf5a210)"><g clip-path="url(#faba06a5ea)"><path fill="#000000" d="M 0.597656 0.984375 L 9.367188 0.984375 L 9.367188 9.753906 L 0.597656 9.753906 Z M 0.597656 0.984375 " fill-opacity="1" fill-rule="nonzero"/></g></g></g></g></g></g></g></g><g transform="matrix(1, 0, 0, 1, 105, 176)"><g clip-path="url(#1d9087cc61)"><g fill="#000000" fill-opacity="1"><g transform="translate(0.739576, 28.543268)"><g><path d="M 6.015625 0 L 2.515625 0 L 2.515625 -19.3125 L 7.5 -19.3125 L 12.390625 -5.109375 L 12.671875 -5.109375 L 17.53125 -19.3125 L 22.40625 -19.3125 L 22.40625 0 L 18.796875 0 L 18.796875 -12.765625 L 18.453125 -12.8125 L 14 0 L 10.8125 0 L 6.34375 -12.8125 L 6.015625 -12.765625 Z M 6.015625 0 "/></g></g></g><g fill="#000000" fill-opacity="1"><g transform="translate(25.677778, 28.543268)"><g><path d="M 14.40625 -6.46875 L 5.03125 -6.46875 C 5.132812 -5.195312 5.492188 -4.269531 6.109375 -3.6875 C 6.734375 -3.113281 7.578125 -2.828125 8.640625 -2.828125 C 9.472656 -2.828125 10.148438 -2.984375 10.671875 -3.296875 C 11.191406 -3.609375 11.613281 -4.082031 11.9375 -4.71875 L 12.203125 -4.71875 L 14.640625 -3.15625 C 14.160156 -2.132812 13.441406 -1.304688 12.484375 -0.671875 C 11.523438 -0.0351562 10.242188 0.28125 8.640625 0.28125 C 7.128906 0.28125 5.828125 -0.00390625 4.734375 -0.578125 C 3.640625 -1.148438 2.796875 -2.003906 2.203125 -3.140625 C 1.609375 -4.273438 1.3125 -5.65625 1.3125 -7.28125 C 1.3125 -8.9375 1.625 -10.332031 2.25 -11.46875 C 2.875 -12.601562 3.71875 -13.453125 4.78125 -14.015625 C 5.84375 -14.578125 7.039062 -14.859375 8.375 -14.859375 C 10.4375 -14.859375 12.015625 -14.3125 13.109375 -13.21875 C 14.210938 -12.125 14.765625 -10.519531 14.765625 -8.40625 C 14.765625 -7.632812 14.738281 -7.039062 14.6875 -6.625 Z M 11.265625 -8.828125 C 11.222656 -9.929688 10.960938 -10.738281 10.484375 -11.25 C 10.003906 -11.757812 9.300781 -12.015625 8.375 -12.015625 C 6.53125 -12.015625 5.441406 -10.953125 5.109375 -8.828125 Z M 11.265625 -8.828125 "/></g></g></g><g fill="#000000" fill-opacity="1"><g transform="translate(41.523518, 28.543268)"><g><path d="M 2.09375 0 L 2.09375 -14.578125 L 5.609375 -14.578125 L 5.609375 -12.4375 L 5.890625 -12.375 C 6.796875 -14.03125 8.269531 -14.859375 10.3125 -14.859375 C 11.988281 -14.859375 13.222656 -14.398438 14.015625 -13.484375 C 14.804688 -12.566406 15.203125 -11.226562 15.203125 -9.46875 L 15.203125 0 L 11.53125 0 L 11.53125 -9.03125 C 11.53125 -10 11.335938 -10.695312 10.953125 -11.125 C 10.566406 -11.550781 9.945312 -11.765625 9.09375 -11.765625 C 8.039062 -11.765625 7.222656 -11.421875 6.640625 -10.734375 C 6.054688 -10.054688 5.765625 -8.992188 5.765625 -7.546875 L 5.765625 0 Z M 2.09375 0 "/></g></g></g><g fill="#000000" fill-opacity="1"><g transform="translate(58.492591, 28.543268)"><g><path d="M 10.0625 -3.46875 L 11 -0.765625 C 10.601562 -0.441406 10.101562 -0.1875 9.5 0 C 8.90625 0.1875 8.234375 0.28125 7.484375 0.28125 C 5.898438 0.28125 4.695312 -0.144531 3.875 -1 C 3.0625 -1.863281 2.65625 -3.113281 2.65625 -4.75 L 2.65625 -11.6875 L 0.4375 -11.6875 L 0.4375 -14.59375 L 2.65625 -14.59375 L 2.65625 -17.421875 L 6.3125 -18.03125 L 6.3125 -14.59375 L 10.453125 -14.59375 L 10.453125 -11.6875 L 6.3125 -11.6875 L 6.3125 -5.015625 C 6.3125 -4.296875 6.460938 -3.769531 6.765625 -3.4375 C 7.066406 -3.113281 7.503906 -2.953125 8.078125 -2.953125 C 8.722656 -2.953125 9.289062 -3.125 9.78125 -3.46875 Z M 10.0625 -3.46875 "/></g></g></g><g fill="#000000" fill-opacity="1"><g transform="translate(69.646717, 28.543268)"><g><path d="M 8.46875 0.28125 C 7.039062 0.28125 5.785156 -0.0078125 4.703125 -0.59375 C 3.628906 -1.1875 2.796875 -2.046875 2.203125 -3.171875 C 1.609375 -4.304688 1.3125 -5.675781 1.3125 -7.28125 C 1.3125 -8.882812 1.609375 -10.253906 2.203125 -11.390625 C 2.796875 -12.523438 3.628906 -13.382812 4.703125 -13.96875 C 5.785156 -14.5625 7.039062 -14.859375 8.46875 -14.859375 C 9.894531 -14.859375 11.144531 -14.5625 12.21875 -13.96875 C 13.300781 -13.382812 14.140625 -12.523438 14.734375 -11.390625 C 15.335938 -10.253906 15.640625 -8.882812 15.640625 -7.28125 C 15.640625 -5.675781 15.335938 -4.304688 14.734375 -3.171875 C 14.140625 -2.046875 13.300781 -1.1875 12.21875 -0.59375 C 11.144531 -0.0078125 9.894531 0.28125 8.46875 0.28125 Z M 8.46875 -2.828125 C 10.726562 -2.828125 11.859375 -4.3125 11.859375 -7.28125 C 11.859375 -8.820312 11.566406 -9.953125 10.984375 -10.671875 C 10.410156 -11.390625 9.570312 -11.75 8.46875 -11.75 C 6.207031 -11.75 5.078125 -10.257812 5.078125 -7.28125 C 5.078125 -4.3125 6.207031 -2.828125 8.46875 -2.828125 Z M 8.46875 -2.828125 "/></g></g></g><g fill="#000000" fill-opacity="1"><g transform="translate(86.589358, 28.543268)"><g><path d="M 2.09375 0 L 2.09375 -14.578125 L 5.65625 -14.578125 L 5.65625 -12.40625 L 5.9375 -12.359375 C 6.289062 -13.171875 6.75 -13.765625 7.3125 -14.140625 C 7.882812 -14.515625 8.582031 -14.703125 9.40625 -14.703125 C 10.238281 -14.703125 10.867188 -14.5625 11.296875 -14.28125 L 10.671875 -11.125 L 10.40625 -11.078125 C 10.164062 -11.171875 9.929688 -11.238281 9.703125 -11.28125 C 9.484375 -11.320312 9.21875 -11.34375 8.90625 -11.34375 C 7.882812 -11.34375 7.101562 -10.984375 6.5625 -10.265625 C 6.03125 -9.554688 5.765625 -8.40625 5.765625 -6.8125 L 5.765625 0 Z M 2.09375 0 "/></g></g></g><g fill="#000000" fill-opacity="1"><g transform="translate(97.637741, 28.543268)"><g><path d="M 14.40625 -6.46875 L 5.03125 -6.46875 C 5.132812 -5.195312 5.492188 -4.269531 6.109375 -3.6875 C 6.734375 -3.113281 7.578125 -2.828125 8.640625 -2.828125 C 9.472656 -2.828125 10.148438 -2.984375 10.671875 -3.296875 C 11.191406 -3.609375 11.613281 -4.082031 11.9375 -4.71875 L 12.203125 -4.71875 L 14.640625 -3.15625 C 14.160156 -2.132812 13.441406 -1.304688 12.484375 -0.671875 C 11.523438 -0.0351562 10.242188 0.28125 8.640625 0.28125 C 7.128906 0.28125 5.828125 -0.00390625 4.734375 -0.578125 C 3.640625 -1.148438 2.796875 -2.003906 2.203125 -3.140625 C 1.609375 -4.273438 1.3125 -5.65625 1.3125 -7.28125 C 1.3125 -8.9375 1.625 -10.332031 2.25 -11.46875 C 2.875 -12.601562 3.71875 -13.453125 4.78125 -14.015625 C 5.84375 -14.578125 7.039062 -14.859375 8.375 -14.859375 C 10.4375 -14.859375 12.015625 -14.3125 13.109375 -13.21875 C 14.210938 -12.125 14.765625 -10.519531 14.765625 -8.40625 C 14.765625 -7.632812 14.738281 -7.039062 14.6875 -6.625 Z M 11.265625 -8.828125 C 11.222656 -9.929688 10.960938 -10.738281 10.484375 -11.25 C 10.003906 -11.757812 9.300781 -12.015625 8.375 -12.015625 C 6.53125 -12.015625 5.441406 -10.953125 5.109375 -8.828125 Z M 11.265625 -8.828125 "/></g></g></g><g fill="#000000" fill-opacity="1"><g transform="translate(113.483481, 28.543268)"><g/></g></g><g fill="#000000" fill-opacity="1"><g transform="translate(119.866715, 28.543268)"><g><path d="M 8.5625 0.28125 C 7.21875 0.28125 6.023438 0.113281 4.984375 -0.21875 C 3.941406 -0.550781 3.070312 -0.984375 2.375 -1.515625 C 1.675781 -2.054688 1.144531 -2.648438 0.78125 -3.296875 L 2.875 -5.859375 L 3.21875 -5.859375 C 3.789062 -4.992188 4.523438 -4.304688 5.421875 -3.796875 C 6.316406 -3.285156 7.363281 -3.03125 8.5625 -3.03125 C 9.582031 -3.03125 10.351562 -3.242188 10.875 -3.671875 C 11.394531 -4.109375 11.65625 -4.703125 11.65625 -5.453125 C 11.65625 -5.910156 11.570312 -6.289062 11.40625 -6.59375 C 11.238281 -6.90625 10.957031 -7.171875 10.5625 -7.390625 C 10.175781 -7.617188 9.65625 -7.8125 9 -7.96875 L 6.515625 -8.53125 C 4.773438 -8.925781 3.476562 -9.582031 2.625 -10.5 C 1.78125 -11.425781 1.359375 -12.625 1.359375 -14.09375 C 1.359375 -15.1875 1.628906 -16.144531 2.171875 -16.96875 C 2.722656 -17.800781 3.519531 -18.445312 4.5625 -18.90625 C 5.601562 -19.363281 6.851562 -19.59375 8.3125 -19.59375 C 9.800781 -19.59375 11.078125 -19.394531 12.140625 -19 C 13.203125 -18.613281 14.097656 -18.015625 14.828125 -17.203125 L 12.9375 -14.609375 L 12.609375 -14.609375 C 12.054688 -15.179688 11.425781 -15.609375 10.71875 -15.890625 C 10.019531 -16.179688 9.21875 -16.328125 8.3125 -16.328125 C 7.257812 -16.328125 6.457031 -16.140625 5.90625 -15.765625 C 5.363281 -15.398438 5.09375 -14.894531 5.09375 -14.25 C 5.09375 -13.632812 5.285156 -13.144531 5.671875 -12.78125 C 6.054688 -12.425781 6.722656 -12.148438 7.671875 -11.953125 L 10.203125 -11.421875 C 12.078125 -11.023438 13.4375 -10.351562 14.28125 -9.40625 C 15.125 -8.457031 15.546875 -7.21875 15.546875 -5.6875 C 15.546875 -4.488281 15.285156 -3.441406 14.765625 -2.546875 C 14.253906 -1.648438 13.472656 -0.953125 12.421875 -0.453125 C 11.367188 0.0351562 10.082031 0.28125 8.5625 0.28125 Z M 8.5625 0.28125 "/></g></g></g><g fill="#000000" fill-opacity="1"><g transform="translate(136.465746, 28.543268)"><g><path d="M 8.46875 0.28125 C 7.039062 0.28125 5.785156 -0.0078125 4.703125 -0.59375 C 3.628906 -1.1875 2.796875 -2.046875 2.203125 -3.171875 C 1.609375 -4.304688 1.3125 -5.675781 1.3125 -7.28125 C 1.3125 -8.882812 1.609375 -10.253906 2.203125 -11.390625 C 2.796875 -12.523438 3.628906 -13.382812 4.703125 -13.96875 C 5.785156 -14.5625 7.039062 -14.859375 8.46875 -14.859375 C 9.894531 -14.859375 11.144531 -14.5625 12.21875 -13.96875 C 13.300781 -13.382812 14.140625 -12.523438 14.734375 -11.390625 C 15.335938 -10.253906 15.640625 -8.882812 15.640625 -7.28125 C 15.640625 -5.675781 15.335938 -4.304688 14.734375 -3.171875 C 14.140625 -2.046875 13.300781 -1.1875 12.21875 -0.59375 C 11.144531 -0.0078125 9.894531 0.28125 8.46875 0.28125 Z M 8.46875 -2.828125 C 10.726562 -2.828125 11.859375 -4.3125 11.859375 -7.28125 C 11.859375 -8.820312 11.566406 -9.953125 10.984375 -10.671875 C 10.410156 -11.390625 9.570312 -11.75 8.46875 -11.75 C 6.207031 -11.75 5.078125 -10.257812 5.078125 -7.28125 C 5.078125 -4.3125 6.207031 -2.828125 8.46875 -2.828125 Z M 8.46875 -2.828125 "/></g></g></g><g fill="#000000" fill-opacity="1"><g transform="translate(153.408387, 28.543268)"><g><path d="M 6.046875 0.28125 C 4.734375 0.28125 3.734375 -0.0703125 3.046875 -0.78125 C 2.359375 -1.488281 2.015625 -2.566406 2.015625 -4.015625 L 2.015625 -20.421875 L 5.671875 -20.421875 L 5.671875 -4.15625 C 5.671875 -3.269531 6.039062 -2.828125 6.78125 -2.828125 C 6.988281 -2.828125 7.210938 -2.863281 7.453125 -2.9375 L 7.640625 -2.875 L 7.96875 -0.0625 C 7.769531 0.0390625 7.5 0.125 7.15625 0.1875 C 6.820312 0.25 6.453125 0.28125 6.046875 0.28125 Z M 6.046875 0.28125 "/></g></g></g><g fill="#000000" fill-opacity="1"><g transform="translate(161.787198, 28.543268)"><g><path d="M 6.671875 0.28125 C 5.035156 0.28125 3.828125 -0.164062 3.046875 -1.0625 C 2.265625 -1.957031 1.875 -3.242188 1.875 -4.921875 L 1.875 -14.578125 L 5.53125 -14.578125 L 5.53125 -5.375 C 5.53125 -4.488281 5.722656 -3.835938 6.109375 -3.421875 C 6.492188 -3.015625 7.085938 -2.8125 7.890625 -2.8125 C 8.898438 -2.8125 9.6875 -3.144531 10.25 -3.8125 C 10.8125 -4.476562 11.09375 -5.523438 11.09375 -6.953125 L 11.09375 -14.578125 L 14.765625 -14.578125 L 14.765625 0 L 11.25 0 L 11.25 -2.140625 L 10.96875 -2.203125 C 10.5 -1.367188 9.925781 -0.742188 9.25 -0.328125 C 8.582031 0.078125 7.722656 0.28125 6.671875 0.28125 Z M 6.671875 0.28125 "/></g></g></g><g fill="#000000" fill-opacity="1"><g transform="translate(178.650545, 28.543268)"><g><path d="M 10.0625 -3.46875 L 11 -0.765625 C 10.601562 -0.441406 10.101562 -0.1875 9.5 0 C 8.90625 0.1875 8.234375 0.28125 7.484375 0.28125 C 5.898438 0.28125 4.695312 -0.144531 3.875 -1 C 3.0625 -1.863281 2.65625 -3.113281 2.65625 -4.75 L 2.65625 -11.6875 L 0.4375 -11.6875 L 0.4375 -14.59375 L 2.65625 -14.59375 L 2.65625 -17.421875 L 6.3125 -18.03125 L 6.3125 -14.59375 L 10.453125 -14.59375 L 10.453125 -11.6875 L 6.3125 -11.6875 L 6.3125 -5.015625 C 6.3125 -4.296875 6.460938 -3.769531 6.765625 -3.4375 C 7.066406 -3.113281 7.503906 -2.953125 8.078125 -2.953125 C 8.722656 -2.953125 9.289062 -3.125 9.78125 -3.46875 Z M 10.0625 -3.46875 "/></g></g></g><g fill="#000000" fill-opacity="1"><g transform="translate(189.976484, 28.543268)"><g><path d="M 3.921875 -16.3125 C 3.265625 -16.3125 2.726562 -16.507812 2.3125 -16.90625 C 1.894531 -17.3125 1.6875 -17.832031 1.6875 -18.46875 C 1.6875 -19.09375 1.894531 -19.601562 2.3125 -20 C 2.726562 -20.40625 3.265625 -20.609375 3.921875 -20.609375 C 4.359375 -20.609375 4.75 -20.515625 5.09375 -20.328125 C 5.4375 -20.148438 5.703125 -19.898438 5.890625 -19.578125 C 6.085938 -19.253906 6.1875 -18.882812 6.1875 -18.46875 C 6.1875 -18.0625 6.085938 -17.691406 5.890625 -17.359375 C 5.703125 -17.035156 5.4375 -16.78125 5.09375 -16.59375 C 4.75 -16.40625 4.359375 -16.3125 3.921875 -16.3125 Z M 2.09375 0 L 2.09375 -14.578125 L 5.765625 -14.578125 L 5.765625 0 Z M 2.09375 0 "/></g></g></g><g fill="#000000" fill-opacity="1"><g transform="translate(197.826663, 28.543268)"><g><path d="M 8.46875 0.28125 C 7.039062 0.28125 5.785156 -0.0078125 4.703125 -0.59375 C 3.628906 -1.1875 2.796875 -2.046875 2.203125 -3.171875 C 1.609375 -4.304688 1.3125 -5.675781 1.3125 -7.28125 C 1.3125 -8.882812 1.609375 -10.253906 2.203125 -11.390625 C 2.796875 -12.523438 3.628906 -13.382812 4.703125 -13.96875 C 5.785156 -14.5625 7.039062 -14.859375 8.46875 -14.859375 C 9.894531 -14.859375 11.144531 -14.5625 12.21875 -13.96875 C 13.300781 -13.382812 14.140625 -12.523438 14.734375 -11.390625 C 15.335938 -10.253906 15.640625 -8.882812 15.640625 -7.28125 C 15.640625 -5.675781 15.335938 -4.304688 14.734375 -3.171875 C 14.140625 -2.046875 13.300781 -1.1875 12.21875 -0.59375 C 11.144531 -0.0078125 9.894531 0.28125 8.46875 0.28125 Z M 8.46875 -2.828125 C 10.726562 -2.828125 11.859375 -4.3125 11.859375 -7.28125 C 11.859375 -8.820312 11.566406 -9.953125 10.984375 -10.671875 C 10.410156 -11.390625 9.570312 -11.75 8.46875 -11.75 C 6.207031 -11.75 5.078125 -10.257812 5.078125 -7.28125 C 5.078125 -4.3125 6.207031 -2.828125 8.46875 -2.828125 Z M 8.46875 -2.828125 "/></g></g></g><g fill="#000000" fill-opacity="1"><g transform="translate(214.769304, 28.543268)"><g><path d="M 2.09375 0 L 2.09375 -14.578125 L 5.609375 -14.578125 L 5.609375 -12.4375 L 5.890625 -12.375 C 6.796875 -14.03125 8.269531 -14.859375 10.3125 -14.859375 C 11.988281 -14.859375 13.222656 -14.398438 14.015625 -13.484375 C 14.804688 -12.566406 15.203125 -11.226562 15.203125 -9.46875 L 15.203125 0 L 11.53125 0 L 11.53125 -9.03125 C 11.53125 -10 11.335938 -10.695312 10.953125 -11.125 C 10.566406 -11.550781 9.945312 -11.765625 9.09375 -11.765625 C 8.039062 -11.765625 7.222656 -11.421875 6.640625 -10.734375 C 6.054688 -10.054688 5.765625 -8.992188 5.765625 -7.546875 L 5.765625 0 Z M 2.09375 0 "/></g></g></g></g></g></svg>