<?xml version="1.0" encoding="UTF-8"?>
<svg version="1.1" xmlns="http://www.w3.org/2000/svg" width="903" height="276">
<path d="M0 0 C4.5789015 3.23873521 7.85923467 7.5152232 9.0390625 13.046875 C9.60445885 22.62885519 5.13030479 29.77595678 0.5625 37.8125 C-0.30592529 39.35502441 -0.30592529 39.35502441 -1.19189453 40.92871094 C-16.40903149 67.8852277 -16.40903149 67.8852277 -20.4375 72.8125 C-21.0975 72.8125 -21.7575 72.8125 -22.4375 72.8125 C-22.4375 73.4725 -22.4375 74.1325 -22.4375 74.8125 C-28.24349957 78.19053611 -32.69498471 79.94411096 -39.4375 78.8125 C-44.23092039 77.43309845 -47.51333434 75.24519056 -50.4375 71.1875 C-53.504504 65.53336337 -53.39649438 60.40457143 -51.76171875 54.28125 C-48.3312929 45.06280834 -42.8070204 36.74177452 -37.75390625 28.3515625 C-34.78983269 23.42766502 -31.92690181 18.45517977 -29.125 13.4375 C-28.55700684 12.42091309 -28.55700684 12.42091309 -27.97753906 11.38378906 C-27.12878081 9.86118285 -26.28277069 8.33704508 -25.4375 6.8125 C-24.7775 6.8125 -24.1175 6.8125 -23.4375 6.8125 C-23.251875 6.235 -23.06625 5.6575 -22.875 5.0625 C-17.86549034 -2.77847165 -7.98112152 -2.75711471 0 0 Z " fill="#E83727" transform="translate(176.4375,103.1875)"/>
<path d="M0 0 C4.62357859 1.97903174 7.57527925 4.62818085 9.94921875 9.07421875 C12.17585404 15.02870498 11.76799041 19.88712861 9.50390625 25.80078125 C7.50383683 30.12196128 5.17218096 34.2501295 2.8125 38.3828125 C2.2659375 39.34638672 1.719375 40.30996094 1.15625 41.30273438 C-16.76998445 72.77192445 -16.76998445 72.77192445 -26.5 78.8203125 C-31.71172553 79.91113877 -36.68139049 79.60211494 -41.5078125 77.25390625 C-45.73928184 74.38868624 -48.39463969 71.46198219 -49.85546875 66.5234375 C-51.27022371 57.40242905 -47.08221128 49.72206702 -42.67578125 42.03125 C-42.34386276 41.45049713 -42.01194427 40.86974426 -41.66996765 40.27139282 C-40.97001047 39.04854903 -40.2682286 37.82674802 -39.56469727 36.60595703 C-38.51588835 34.78539214 -37.47328703 32.9613891 -36.43164062 31.13671875 C-32.98910087 25.12312519 -29.48980121 19.14322057 -25.90234375 13.21484375 C-25.27835693 12.18077393 -24.65437012 11.1467041 -24.01147461 10.08129883 C-18.21872855 1.51119814 -10.19736614 -2.87711402 0 0 Z " fill="#000000" transform="translate(123.1875,102.6171875)"/>
<path d="M0 0 C4.62 0 9.24 0 14 0 C14.44730469 1.29292969 14.89460938 2.58585937 15.35546875 3.91796875 C15.96603401 5.67451804 16.57671754 7.43102622 17.1875 9.1875 C17.62545898 10.4549707 17.62545898 10.4549707 18.07226562 11.74804688 C20.56082031 18.89260711 23.25394358 25.95078724 26 33 C26.32798584 32.03586182 26.65597168 31.07172363 26.99389648 30.07836914 C28.20789916 26.51225214 29.42574489 22.94745776 30.64477539 19.38305664 C31.1725238 17.83816948 31.6992197 16.29292236 32.22485352 14.74731445 C32.97918785 12.52981324 33.73725874 10.3136207 34.49609375 8.09765625 C34.73154404 7.4028566 34.96699432 6.70805695 35.20957947 5.99220276 C36.88612829 1.11387171 36.88612829 1.11387171 38 0 C42.29 0 46.58 0 51 0 C51 16.5 51 33 51 50 C47.7 50 44.4 50 41 50 C40.67 41.09 40.34 32.18 40 23 C37.08176784 31.13696315 37.08176784 31.13696315 34.16625977 39.27490234 C33.80330811 40.28504395 33.44035645 41.29518555 33.06640625 42.3359375 C32.69459229 43.37282715 32.32277832 44.4097168 31.93969727 45.47802734 C31 48 31 48 30 50 C27.03 50 24.06 50 21 50 C17.33041408 41.10831103 14.17076203 32.07990946 11 23 C10.67 31.91 10.34 40.82 10 50 C6.7 50 3.4 50 0 50 C0 33.5 0 17 0 0 Z " fill="#010101" transform="translate(252,114)"/>
<path d="M0 0 C5.34421834 4.87127867 7.65173592 9.51735924 8.375 16.75 C8.18251392 22.66045491 6.24986936 28.40891822 2.3515625 32.8984375 C-3.63117067 38.25415934 -9.0525532 39.47428723 -16.99609375 39.30859375 C-23.17491265 38.67383862 -27.21130144 36.13900973 -31.375 31.625 C-36.0252367 25.64792946 -36.90616534 19.40990895 -36 12 C-34.17699064 5.82141737 -30.39802249 1.42158119 -25 -2 C-16.21022398 -6.33165221 -8.0677163 -5.53405333 0 0 Z " fill="#000000" transform="translate(217,140)"/>
<path d="M0 0 C2.5 2.1875 2.5 2.1875 4 4 C2.35 6.31 0.7 8.62 -1 11 C-5.75 9.125 -5.75 9.125 -8 8 C-10.04055005 7.92934383 -12.08334257 7.91578024 -14.125 7.9375 C-15.22070312 7.94652344 -16.31640625 7.95554687 -17.4453125 7.96484375 C-18.28835938 7.97644531 -19.13140625 7.98804687 -20 8 C-20.16687448 10.41645782 -20.16687448 10.41645782 -20 13 C-16.8241845 16.1758155 -12.32436514 16.43022264 -8.02929688 17.32421875 C-2.06301777 18.68194739 1.51734241 20.77601361 5 26 C6.40029147 32.24745425 6.23057159 37.33573114 3 43 C-0.30932479 46.9093672 -3.79546591 47.86134859 -8.80078125 48.4375 C-17.82291759 48.86540643 -24.56337393 47.99296346 -31.5 41.75 C-31.995 41.1725 -32.49 40.595 -33 40 C-30.89285714 34.00274725 -30.89285714 34.00274725 -28 32 C-25.8125 32.3125 -25.8125 32.3125 -24 33 C-24 33.66 -24 34.32 -24 35 C-19.60301547 37.12757316 -14.88308109 38.10973216 -10 38 C-9.01 37.34 -8.02 36.68 -7 36 C-6.7497843 32.91634129 -6.7497843 32.91634129 -7 30 C-8.08539062 29.68546875 -9.17078125 29.3709375 -10.2890625 29.046875 C-11.73453277 28.61511115 -13.17983657 28.18278975 -14.625 27.75 C-15.33785156 27.54503906 -16.05070313 27.34007812 -16.78515625 27.12890625 C-22.6568689 25.35123178 -27.48534146 23.27198782 -31 18 C-31.73409195 13.17193373 -32.06395195 8.20363001 -29.90234375 3.7265625 C-22.90152389 -5.12247381 -9.38283552 -5.16704537 0 0 Z " fill="#010101" transform="translate(581,116)"/>
<path d="M0 0 C6.00565943 6.32174676 5 9.49009833 5 19 C-2.92 19 -10.84 19 -19 19 C-18.34 20.98 -17.68 22.96 -17 25 C-13.81225917 26.59387042 -10.46072041 26.52663137 -7 26 C-4.49479421 24.16658535 -4.49479421 24.16658535 -3 22 C3.875 25.75 3.875 25.75 5 28 C-0.15536753 34.58741407 -0.15536753 34.58741407 -4 36 C-9.8838894 36.61633921 -16.62798094 37.21725953 -22.0625 34.5 C-26.93334555 30.35459953 -29.63049811 27.08270148 -30.41015625 20.578125 C-30.60174717 12.68124711 -29.89233002 7.43952759 -24.6875 1.25 C-17.48254701 -4.78205367 -7.94253171 -4.51634156 0 0 Z M-17 7 C-17.66 8.65 -18.32 10.3 -19 12 C-14.38 12 -9.76 12 -5 12 C-6.40628499 7.05248064 -6.40628499 7.05248064 -9.3125 5.5625 C-12.68815817 4.85596689 -14.07913182 5.18432519 -17 7 Z " fill="#010101" transform="translate(342,128)"/>
<path d="M0 0 C3.12795889 2.31589264 4.25710289 4.93220771 5.3125 8.578125 C5.69800647 11.81637938 5.75029057 14.9455703 5.625 18.203125 C4.625 19.203125 4.625 19.203125 2.30834961 19.31665039 C1.30811768 19.31141357 0.30788574 19.30617676 -0.72265625 19.30078125 C-1.80224609 19.29755859 -2.88183594 19.29433594 -3.99414062 19.29101562 C-5.13044922 19.28263672 -6.26675781 19.27425781 -7.4375 19.265625 C-8.57767578 19.26111328 -9.71785156 19.25660156 -10.89257812 19.25195312 C-13.72010351 19.24012247 -16.5475264 19.2236391 -19.375 19.203125 C-17.68692092 23.43397403 -17.68692092 23.43397403 -14.375 26.203125 C-8.50046807 26.75230377 -8.50046807 26.75230377 -3.375 24.203125 C-2.715 23.543125 -2.055 22.883125 -1.375 22.203125 C0.605 23.523125 2.585 24.843125 4.625 26.203125 C4.15195318 30.46054637 1.7386178 32.46017598 -1.375 35.203125 C-7.85809675 37.36415725 -15.81543388 37.39464716 -22 34.515625 C-27.45450456 29.20466004 -30.06630986 25.03088276 -30.6875 17.328125 C-30.50021575 10.79814734 -28.07844138 4.77591523 -23.375 0.203125 C-15.83555877 -4.16975091 -7.62742112 -4.3673137 0 0 Z M-15.1875 6.328125 C-17.78028732 8.1844911 -17.78028732 8.1844911 -18.375 12.203125 C-14.085 12.203125 -9.795 12.203125 -5.375 12.203125 C-5.705 10.553125 -6.035 8.903125 -6.375 7.203125 C-10.71316633 5.25796251 -10.71316633 5.25796251 -15.1875 6.328125 Z " fill="#010101" transform="translate(523.375,127.796875)"/>
<path d="M0 0 C4.95972869 3.89063162 6.93964995 8.66726874 7.7578125 14.81640625 C8.03101473 20.98053149 7.34530882 26.54042876 3.06640625 31.234375 C-2.77909778 36.37207269 -6.8803336 36.78252982 -14.67578125 36.7265625 C-19.57833356 36.24865762 -22.7128558 34.77820994 -26.2421875 31.37890625 C-30.76281154 25.40001639 -30.9567841 18.64564916 -30.2421875 11.37890625 C-28.49719253 5.45589475 -25.26176267 1.82986418 -20.2421875 -1.62109375 C-13.51923239 -3.78799664 -6.14831141 -3.57199469 0 0 Z M-18.2421875 9.37890625 C-19.94094996 14.47519364 -20.14517596 19.4944086 -17.8046875 24.37890625 C-16.3961841 26.26554008 -16.3961841 26.26554008 -15.2421875 27.37890625 C-11.48450141 27.73340494 -9.10946779 27.92666223 -5.8671875 25.87890625 C-2.94367497 21.38119467 -2.87693203 17.13877353 -3.9296875 12.06640625 C-5.36772974 9.12184356 -6.3592959 7.90514298 -9.2421875 6.37890625 C-13.53660548 6.37890625 -14.86351103 6.91338558 -18.2421875 9.37890625 Z " fill="#010101" transform="translate(776.2421875,127.62109375)"/>
<path d="M0 0 C4.86515614 3.44615226 6.5237355 7.47347036 7.6875 13.1953125 C8.15248671 19.05414509 7.74003624 24.05475667 4.6875 29.1953125 C1.22171062 32.89375904 -2.15177643 36.02436031 -7.32421875 36.43359375 C-20.0113529 36.6897633 -20.0113529 36.6897633 -25.3125 32.1953125 C-29.89277364 26.10241763 -31.17013917 19.65200864 -30.3125 12.1953125 C-28.29294152 5.32442332 -25.3632788 1.51004325 -19.125 -2.0546875 C-12.33957421 -3.86413438 -6.12602899 -3.53234736 0 0 Z M-17.3125 8.1953125 C-19.57141556 12.14841473 -19.63273739 15.71198907 -19.3125 20.1953125 C-18.33765446 23.32874459 -17.63627005 24.87154245 -15.3125 27.1953125 C-10.15521845 27.84824735 -10.15521845 27.84824735 -5.609375 25.9765625 C-3.10698232 22.53954123 -3.3125 18.3255675 -3.3125 14.1953125 C-4.14955411 9.81577982 -4.14955411 9.81577982 -7.1875 6.8203125 C-11.08143628 5.67503712 -14.03318996 5.89979547 -17.3125 8.1953125 Z " fill="#010101" transform="translate(621.3125,127.8046875)"/>
<path d="M0 0 C4.03835287 3.85603445 6.75988226 7.12252345 7.23828125 12.85546875 C7.39057201 19.69252215 7.51692667 25.54365554 3 31 C-1.31656811 35.32717392 -5.53281255 36.34764907 -11.5625 36.5625 C-18.6720856 36.26626727 -22.41850783 34.71736018 -27.375 29.5 C-31.13580003 23.7141538 -30.56560546 16.66777145 -30 10 C-28.69873599 5.26339899 -26.80593131 2.65481919 -23 -0.4375 C-15.53742763 -4.32425645 -7.30263964 -4.27135526 0 0 Z M-16.9375 7.6875 C-19.94601394 12.51935572 -20.1081575 17.44392758 -19 23 C-16.50054429 26.21972897 -15.60777374 26.91317518 -11.5 27.5 C-7.39350428 26.91335775 -6.49039293 26.22729105 -4 23 C-3.4062119 20.09782388 -3.4062119 20.09782388 -3.5625 17 C-3.56378906 15.96875 -3.56507813 14.9375 -3.56640625 13.875 C-4.05021349 10.66705287 -4.72616029 9.28439117 -7 7 C-11.21258504 5.67381582 -13.07145309 5.46657943 -16.9375 7.6875 Z " fill="#010101" transform="translate(453,128)"/>
<path d="M0 0 C3.33218907 2.32478307 4.1665102 4.12463679 5.6875 7.875 C6.02807617 11.31005859 6.02807617 11.31005859 5.98046875 15.0234375 C5.97622391 15.68082916 5.97197906 16.33822083 5.96760559 17.01553345 C5.95094977 19.09412391 5.9133262 21.17170774 5.875 23.25 C5.85993605 24.66795464 5.84625065 26.08592464 5.83398438 27.50390625 C5.80109038 30.9612589 5.74940165 34.41803103 5.6875 37.875 C4.04175434 37.90188151 2.39588587 37.92134123 0.75 37.9375 C-0.16652344 37.94910156 -1.08304687 37.96070313 -2.02734375 37.97265625 C-4.3125 37.875 -4.3125 37.875 -5.3125 36.875 C-5.47075258 34.87717874 -5.56369171 32.87411166 -5.62890625 30.87109375 C-5.67080078 29.65615234 -5.71269531 28.44121094 -5.75585938 27.18945312 C-5.79517578 25.91005859 -5.83449219 24.63066406 -5.875 23.3125 C-5.91818359 22.02923828 -5.96136719 20.74597656 -6.00585938 19.42382812 C-6.112348 16.24100147 -6.21435962 13.05809326 -6.3125 9.875 C-10.84390653 8.94119039 -10.84390653 8.94119039 -15.3125 9.875 C-17.15093448 13.38456292 -17.59501814 16.47012438 -17.7265625 20.39453125 C-17.78457031 21.9269043 -17.78457031 21.9269043 -17.84375 23.49023438 C-17.89015625 25.07288086 -17.89015625 25.07288086 -17.9375 26.6875 C-17.99550781 28.29915039 -17.99550781 28.29915039 -18.0546875 29.94335938 C-18.14868238 32.58696539 -18.23166849 35.23095876 -18.3125 37.875 C-21.6125 37.875 -24.9125 37.875 -28.3125 37.875 C-28.3125 25.335 -28.3125 12.795 -28.3125 -0.125 C-25.0125 -0.125 -21.7125 -0.125 -18.3125 -0.125 C-17.9825 0.865 -17.6525 1.855 -17.3125 2.875 C-16.879375 2.400625 -16.44625 1.92625 -16 1.4375 C-11.62800011 -2.61064804 -5.22249266 -1.77367675 0 0 Z " fill="#000000" transform="translate(382.3125,126.125)"/>
<path d="M0 0 C4.05607052 2.06490863 6.42355899 3.7305099 8 8 C8.22705078 11.29980469 8.22705078 11.29980469 8.1953125 15.171875 C8.1924826 15.8542926 8.18965271 16.53671021 8.18673706 17.23980713 C8.17558098 19.41005307 8.15048557 21.57987971 8.125 23.75 C8.11496426 25.22525444 8.10583944 26.70051537 8.09765625 28.17578125 C8.07565687 31.78398942 8.04115883 35.39195375 8 39 C4.7 39 1.4 39 -2 39 C-2.01458252 38.22809326 -2.02916504 37.45618652 -2.04418945 36.66088867 C-2.11858033 33.16924907 -2.2152709 29.6785751 -2.3125 26.1875 C-2.33505859 24.97255859 -2.35761719 23.75761719 -2.38085938 22.50585938 C-2.4340332 20.76079102 -2.4340332 20.76079102 -2.48828125 18.98046875 C-2.51446533 17.90692139 -2.54064941 16.83337402 -2.56762695 15.72729492 C-2.78456814 12.98310754 -2.78456814 12.98310754 -4.40429688 11.13085938 C-5.95223858 9.81482632 -5.95223858 9.81482632 -8.04296875 9.92578125 C-8.75066406 10.05339844 -9.45835937 10.18101562 -10.1875 10.3125 C-11.445625 10.539375 -12.70375 10.76625 -14 11 C-15.16989449 16.76099303 -15.33204041 22.5190595 -15.5625 28.375 C-15.60568359 29.39722656 -15.64886719 30.41945312 -15.69335938 31.47265625 C-15.79887713 33.98163405 -15.89988763 36.4908007 -16 39 C-19.3 39 -22.6 39 -26 39 C-26 26.46 -26 13.92 -26 1 C-22.7 1 -19.4 1 -16 1 C-15.67 1.99 -15.34 2.98 -15 4 C-14.566875 3.525625 -14.13375 3.05125 -13.6875 2.5625 C-9.96062488 -0.8883103 -4.77966964 -0.5954196 0 0 Z " fill="#000000" transform="translate(817,125)"/>
<path d="M0 0 C1.37478516 0.01740234 1.37478516 0.01740234 2.77734375 0.03515625 C3.69644531 0.04417969 4.61554687 0.05320312 5.5625 0.0625 C6.27277344 0.07410156 6.98304688 0.08570312 7.71484375 0.09765625 C7.7398999 0.8747998 7.76495605 1.65194336 7.79077148 2.45263672 C7.90651171 5.95948694 8.02933727 9.4660537 8.15234375 12.97265625 C8.19166016 14.19597656 8.23097656 15.41929687 8.27148438 16.6796875 C8.33432617 18.42958984 8.33432617 18.42958984 8.3984375 20.21484375 C8.43509521 21.29362793 8.47175293 22.37241211 8.50952148 23.48388672 C8.54861018 26.07835161 8.54861018 26.07835161 9.71484375 28.09765625 C13.08884953 28.51491303 13.08884953 28.51491303 16.71484375 28.09765625 C19.41357802 24.64248504 20.10572216 21.90420921 20.2265625 17.578125 C20.26201172 16.55654297 20.29746094 15.53496094 20.33398438 14.48242188 C20.35654297 13.42732422 20.37910156 12.37222656 20.40234375 11.28515625 C20.43650391 10.21072266 20.47066406 9.13628906 20.50585938 8.02929688 C20.58810218 5.38577812 20.65315568 2.74173451 20.71484375 0.09765625 C24.01484375 0.09765625 27.31484375 0.09765625 30.71484375 0.09765625 C30.71484375 12.63765625 30.71484375 25.17765625 30.71484375 38.09765625 C27.74484375 38.09765625 24.77484375 38.09765625 21.71484375 38.09765625 C21.05484375 37.10765625 20.39484375 36.11765625 19.71484375 35.09765625 C19.17730469 35.58234375 18.63976562 36.06703125 18.0859375 36.56640625 C13.74003366 39.37298666 8.69353832 38.84582074 3.71484375 38.09765625 C0.74123289 35.88202463 -0.65475418 34.3584604 -2.28515625 31.09765625 C-2.45208775 28.85992654 -2.55891046 26.6175981 -2.63671875 24.375 C-2.65987152 23.71432022 -2.68302429 23.05364044 -2.70687866 22.37294006 C-2.75448951 20.97681238 -2.79972709 19.58060205 -2.84277344 18.18432617 C-2.91000795 16.03988633 -2.98771662 13.89599968 -3.06640625 11.75195312 C-3.1113089 10.39715621 -3.15560067 9.04233888 -3.19921875 7.6875 C-3.23998535 6.44863037 -3.28075195 5.20976074 -3.32275391 3.93334961 C-3.27245695 0.13984859 -3.27245695 0.13984859 0 0 Z " fill="#010101" transform="translate(659.28515625,125.90234375)"/>
<path d="M0 0 C0 2.97 0 5.94 0 9 C3.3 9 6.6 9 10 9 C10 11.64 10 14.28 10 17 C5.05 17.495 5.05 17.495 0 18 C0.33 24.27 0.66 30.54 1 37 C3.64 37 6.28 37 9 37 C10.57035335 39.49409061 11.0274945 40.70443416 10.75 43.6875 C10.5025 44.450625 10.255 45.21375 10 46 C5.79866307 48.10066847 0.56281034 47.54135038 -4 47 C-6.80169398 45.6436659 -7.91610376 44.42182535 -10 42 C-11.00005304 38.99984088 -11.11575585 37.02576244 -11.09765625 33.89453125 C-11.09443359 32.91162109 -11.09121094 31.92871094 -11.08789062 30.91601562 C-11.07951172 29.89185547 -11.07113281 28.86769531 -11.0625 27.8125 C-11.05798828 26.77673828 -11.05347656 25.74097656 -11.04882812 24.67382812 C-11.0370401 22.11582734 -11.02058515 19.55794267 -11 17 C-12.98 17 -14.96 17 -17 17 C-17 14.36 -17 11.72 -17 9 C-15.02 9 -13.04 9 -11 9 C-11 6.69 -11 4.38 -11 2 C-7.17679443 0.57741188 -4.08718695 -0.24042276 0 0 Z " fill="#010101" transform="translate(712,117)"/>
<path d="M0 0 C0 2.31 0 4.62 0 7 C3.3 7.33 6.6 7.66 10 8 C10 10.64 10 13.28 10 16 C5.05 16.495 5.05 16.495 0 17 C0.33 23.27 0.66 29.54 1 36 C3.64 36 6.28 36 9 36 C11.06878307 40.38095238 11.06878307 40.38095238 10.75 43.25 C10 45 10 45 8 46 C-1.86469767 47.0337258 -1.86469767 47.0337258 -6.08984375 44.98828125 C-8.68801523 42.87289958 -9.93869571 41.18391286 -11 38 C-11.08178114 36.29983156 -11.10749501 34.59663703 -11.09765625 32.89453125 C-11.09443359 31.91162109 -11.09121094 30.92871094 -11.08789062 29.91601562 C-11.07951172 28.89185547 -11.07113281 27.86769531 -11.0625 26.8125 C-11.05798828 25.77673828 -11.05347656 24.74097656 -11.04882812 23.67382812 C-11.0370401 21.11582734 -11.02058515 18.55794267 -11 16 C-12.98 16 -14.96 16 -17 16 C-17 13.36 -17 10.72 -17 8 C-15.02 8 -13.04 8 -11 8 C-11 5.69 -11 3.38 -11 1 C-6.87831311 -0.62950412 -4.29299643 -1.26264601 0 0 Z " fill="#000000" transform="translate(409,118)"/>
<path d="M0 0 C3.3 0 6.6 0 10 0 C10.33 14.19 10.66 28.38 11 43 C12.65 43.66 14.3 44.32 16 45 C16 47.64 16 50.28 16 53 C5.87944162 53.62817259 5.87944162 53.62817259 2.375 51.125 C0.31576775 47.94255016 -0.1235879 46.22187632 -0.11352539 42.45849609 C-0.11344986 41.51767181 -0.11337433 40.57684753 -0.11329651 39.60751343 C-0.10555458 38.08089584 -0.10555458 38.08089584 -0.09765625 36.5234375 C-0.0962413 35.48305328 -0.09482635 34.44266907 -0.09336853 33.37075806 C-0.08775866 30.03880979 -0.07520447 26.70692805 -0.0625 23.375 C-0.05748627 21.11979264 -0.05292314 18.86458422 -0.04882812 16.609375 C-0.03778602 11.07289093 -0.02051475 5.53645675 0 0 Z " fill="#000000" transform="translate(636,111)"/>
<path d="M0 0 C-0.33 2.97 -0.66 5.94 -1 9 C-4 10 -4 10 -7.5625 10.3125 C-11.00527365 10.58875569 -11.00527365 10.58875569 -12.18896484 12.70410156 C-13.13058863 15.36967353 -13.31989372 17.59681171 -13.4140625 20.421875 C-13.47207031 21.95908203 -13.47207031 21.95908203 -13.53125 23.52734375 C-13.57765625 25.12255859 -13.57765625 25.12255859 -13.625 26.75 C-13.68300781 28.36841797 -13.68300781 28.36841797 -13.7421875 30.01953125 C-13.83634248 32.67940932 -13.9192555 35.33968106 -14 38 C-17.63 38 -21.26 38 -25 38 C-25 25.46 -25 12.92 -25 0 C-21.37 0 -17.74 0 -14 0 C-13.67 0.66 -13.34 1.32 -13 2 C-12.34 1.34 -11.68 0.68 -11 0 C-7.27111943 -1.51917357 -3.87218416 -0.67018572 0 0 Z " fill="#010101" transform="translate(492,126)"/>
<path d="M0 0 C2.88935965 2.25510997 3.80660258 3.76225652 4.37109375 7.375 C4.57854344 11.59943012 4.40958145 14.2718552 2.3125 18 C-1.36499556 21.1805367 -3.60614721 22.04978046 -8.5 21.875 C-13.03615995 20.74096001 -15.63218425 18.95402251 -18.3125 15.125 C-19.73120666 10.73990667 -19.47082662 7.92354453 -17.375 3.8125 C-12.16998033 -2.35133909 -7.22294656 -2.96044869 0 0 Z " fill="#010101" transform="translate(211,112)"/>
<path d="M0 0 C3.63 0 7.26 0 11 0 C11 12.54 11 25.08 11 38 C7.7 38 4.4 38 1 38 C0 37 0 37 -0.11352539 33.48999023 C-0.11336626 31.92951578 -0.10767142 30.36903607 -0.09765625 28.80859375 C-0.0962413 27.98875504 -0.09482635 27.16891632 -0.09336853 26.32423401 C-0.08775289 23.69528618 -0.07519779 21.06642227 -0.0625 18.4375 C-0.05748701 16.65950643 -0.05292376 14.88151154 -0.04882812 13.10351562 C-0.03777839 8.73564455 -0.02050331 4.36783652 0 0 Z " fill="#000000" transform="translate(728,126)"/>
<path d="M0 0 C1 2 1 2 0.46875 3.77734375 C-2.03035542 9.34994575 -5.05306255 14.3798952 -8.39453125 19.48828125 C-10.15077831 22.23588918 -11.59878874 25.05745635 -13 28 C-13.53625 28.86625 -14.0725 29.7325 -14.625 30.625 C-17.14114159 34.97106275 -17.1123163 38.76837012 -17.0625 43.75 C-17.05347656 44.92046875 -17.04445313 46.0909375 -17.03515625 47.296875 C-17.02355469 48.18890625 -17.01195313 49.0809375 -17 50 C-16.11054687 50.42925781 -16.11054687 50.42925781 -15.203125 50.8671875 C-12.31072552 52.35441418 -9.68475296 54.16948662 -7 56 C-7.33 56.66 -7.66 57.32 -8 58 C-13.00955035 56.42556989 -16.42094804 53.66119945 -19.1171875 49.1171875 C-21.48445566 43.43993376 -20.43300964 37.35073538 -18.3125 31.75 C-13.33006064 20.69883363 -6.71693867 10.07540801 0 0 Z " fill="#B8312A" transform="translate(144,123)"/>
<path d="M0 0 C1.9375 1.1875 1.9375 1.1875 3 3 C3.5 5.4375 3.5 5.4375 3 8 C0.8125 10.375 0.8125 10.375 -2 12 C-4.92738742 11.9303003 -6.41595862 11.40278716 -8.8125 9.75 C-10.45364719 7.3314673 -10.42967368 5.86449123 -10 3 C-7.66004009 -0.99169632 -4.2277022 -0.45296809 0 0 Z " fill="#010101" transform="translate(737,111)"/>
<path d="M0 0 C2.42455474 2.42455474 2.43213418 3.26507444 2.625 6.625 C2.53710361 14.88726064 -1.8126369 22.08832838 -6 29 C-6.66 29.33 -7.32 29.66 -8 30 C-7.125 25.25 -7.125 25.25 -6 23 C-5.34 23 -4.68 23 -4 23 C-3.95101562 22.38511719 -3.90203125 21.77023438 -3.8515625 21.13671875 C-3.77679688 20.32847656 -3.70203125 19.52023438 -3.625 18.6875 C-3.55539063 17.88699219 -3.48578125 17.08648437 -3.4140625 16.26171875 C-3 14 -3 14 -1 11 C-0.54227937 8.26127045 -0.54227937 8.26127045 -0.375 5.3125 C-0.30023438 4.31863281 -0.22546875 3.32476562 -0.1484375 2.30078125 C-0.09945312 1.54152344 -0.05046875 0.78226562 0 0 Z " fill="#B43B32" transform="translate(183,112)"/>
<path d="M0 0 C0.99 0.33 1.98 0.66 3 1 C1.7260411 3.03833424 0.38938077 5.03852126 -1 7 C-1.66 7 -2.32 7 -3 7 C-3 7.66 -3 8.32 -3 9 C-8.5825192 12.32575612 -12.49686791 13.46450943 -19 13 C-16.28475773 11.18983849 -14.62061343 10.52809442 -11.5625 9.6875 C-7.32744606 8.33530288 -5.46426287 6.79117364 -3 3 C-2.01769502 1.9826127 -1.02530403 0.97403883 0 0 Z " fill="#C32D23" transform="translate(157,169)"/>
<path d="M0 0 C0 0.33 0 0.66 0 1 C-0.59425781 0.96777344 -1.18851563 0.93554688 -1.80078125 0.90234375 C-9.32192909 1.00761643 -13.24858032 3.95179287 -18.84765625 8.7734375 C-21.20309317 10.88929323 -21.20309317 10.88929323 -22 14 C-22.66 14 -23.32 14 -24 14 C-23.34 12.02 -22.68 10.04 -22 8 C-21.34 8 -20.68 8 -20 8 C-19.7215625 7.13375 -19.7215625 7.13375 -19.4375 6.25 C-14.85183219 -0.927567 -7.62684146 -0.49650324 0 0 Z " fill="#B43329" transform="translate(173,102)"/>
<path d="M0 0 C2.66710654 0.15240609 4.4505871 0.49364919 6.4453125 2.33203125 C10 6.50625 10 6.50625 10 9 C9.34 9 8.68 9 8 9 C7.195625 8.030625 6.39125 7.06125 5.5625 6.0625 C3.29315623 2.80624673 3.29315623 2.80624673 0 2 C0 1.34 0 0.68 0 0 Z " fill="#B3382F" transform="translate(173,103)"/>
<path d="M0 0 C-2.26562673 2.26562673 -3.84160705 2.94462749 -7.04296875 3.09765625 C-7.75066406 3.08605469 -8.45835937 3.07445312 -9.1875 3.0625 C-11.0746875 3.0315625 -11.0746875 3.0315625 -13 3 C-8.54370064 0.02913376 -5.32064558 -0.12092376 0 0 Z " fill="#AB3125" transform="translate(151,179)"/>
<path d="M0 0 C0.33 0.66 0.66 1.32 1 2 C0.0390625 3.9453125 0.0390625 3.9453125 -1.375 6.125 C-1.83648437 6.84945312 -2.29796875 7.57390625 -2.7734375 8.3203125 C-3.17820313 8.87460938 -3.58296875 9.42890625 -4 10 C-4.33 10 -4.66 10 -5 10 C-5 8.35 -5 6.7 -5 5 C-4.360625 4.731875 -3.72125 4.46375 -3.0625 4.1875 C-0.66868314 3.11332248 -0.66868314 3.11332248 0 0 Z " fill="#B93A2C" transform="translate(168,153)"/>
<path d="M0 0 C0.66 0.33 1.32 0.66 2 1 C-0.475 5.455 -0.475 5.455 -3 10 C-3.33 10 -3.66 10 -4 10 C-4 8.35 -4 6.7 -4 5 C-3.01 4.67 -2.02 4.34 -1 4 C-0.26676204 1.98491642 -0.26676204 1.98491642 0 0 Z " fill="#B23B2F" transform="translate(173,143)"/>
<path d="M0 0 C2.64 0.33 5.28 0.66 8 1 C5.36095629 2.41377341 2.92879371 3.37240135 0 4 C-0.33 3.34 -0.66 2.68 -1 2 C-0.67 1.34 -0.34 0.68 0 0 Z " fill="#D53423" transform="translate(137,178)"/>
<path d="M0 0 C1.98 0.99 1.98 0.99 4 2 C2.68 2 1.36 2 0 2 C0 1.34 0 0.68 0 0 Z " fill="#000000" transform="translate(196,133)"/>
<path d="M0 0 C1.32 0.33 2.64 0.66 4 1 C3.01 1.495 3.01 1.495 2 2 C1.34 1.34 0.68 0.68 0 0 Z " fill="#000000" transform="translate(522,149)"/>
<path d="M0 0 C3 1 3 1 3 1 Z " fill="#000000" transform="translate(207,134)"/>
<path d="M0 0 C2 1 2 1 2 1 Z " fill="#000000" transform="translate(734,124)"/>
<path d="" fill="#000000" transform="translate(0,0)"/>
<path d="" fill="#000000" transform="translate(0,0)"/>
<path d="" fill="#000000" transform="translate(0,0)"/>
<path d="" fill="#000000" transform="translate(0,0)"/>
<path d="" fill="#000000" transform="translate(0,0)"/>
<path d="" fill="#000000" transform="translate(0,0)"/>
<path d="" fill="#000000" transform="translate(0,0)"/>
<path d="" fill="#000000" transform="translate(0,0)"/>
<path d="" fill="#000000" transform="translate(0,0)"/>
<path d="" fill="#000000" transform="translate(0,0)"/>
<path d="" fill="#000000" transform="translate(0,0)"/>
<path d="" fill="#000000" transform="translate(0,0)"/>
<path d="" fill="#000000" transform="translate(0,0)"/>
<path d="" fill="#000000" transform="translate(0,0)"/>
<path d="" fill="#000000" transform="translate(0,0)"/>
<path d="" fill="#000000" transform="translate(0,0)"/>
<path d="" fill="#000000" transform="translate(0,0)"/>
<path d="" fill="#000000" transform="translate(0,0)"/>
</svg>
