<svg xmlns="http://www.w3.org/2000/svg" xmlns:xlink="http://www.w3.org/1999/xlink" width="1920" zoomAndPan="magnify" viewBox="0 0 1440 809.999993" height="1080" preserveAspectRatio="xMidYMid meet" version="1.0"><defs><clipPath id="2c502a1a4e"><path d="M 1029.746094 0 L 1439.996094 0 L 1439.996094 324 L 1029.746094 324 Z M 1029.746094 0 " clip-rule="nonzero"/></clipPath><clipPath id="3712f22b3e"><path d="M 1077 0 L 1439.996094 0 L 1439.996094 303 L 1077 303 Z M 1077 0 " clip-rule="nonzero"/></clipPath><clipPath id="a2072264e7"><path d="M 0 398.964844 L 755.25 398.964844 L 755.25 810 L 0 810 Z M 0 398.964844 " clip-rule="nonzero"/></clipPath></defs><g clip-path="url(#2c502a1a4e)"><path fill="#e6e6e6" d="M 1029.777344 0 L 1439.964844 0 L 1439.964844 323.996094 C 1439.828125 323.894531 1439.6875 323.78125 1439.550781 323.648438 C 1439.113281 323.234375 1438.703125 322.789062 1438.320312 322.320312 C 1437.882812 321.785156 1437.417969 321.15625 1436.9375 320.457031 L 1436.183594 319.351562 C 1435.925781 318.96875 1435.664062 318.566406 1435.402344 318.152344 C 1435.136719 317.738281 1434.871094 317.300781 1434.601562 316.859375 L 1433.78125 315.488281 C 1433.222656 314.554688 1432.660156 313.574219 1432.109375 312.554688 C 1431.554688 311.53125 1430.96875 310.492188 1430.417969 309.425781 C 1430.144531 308.890625 1429.871094 308.351562 1429.597656 307.8125 C 1429.324219 307.273438 1429.050781 306.730469 1428.777344 306.1875 C 1427.726562 303.996094 1426.691406 301.808594 1425.847656 299.671875 C 1425.40625 298.609375 1425.007812 297.566406 1424.660156 296.550781 C 1424.574219 296.296875 1424.492188 296.042969 1424.410156 295.792969 C 1424.332031 295.542969 1424.246094 295.296875 1424.167969 295.050781 C 1424.015625 294.5625 1423.875 294.082031 1423.75 293.609375 C 1423.511719 292.726562 1423.328125 291.828125 1423.191406 290.925781 C 1423.066406 290.144531 1423.011719 289.359375 1423.03125 288.566406 C 1423.089844 287.121094 1423.472656 285.9375 1424.265625 285.132812 C 1424.449219 283.863281 1424.535156 282.585938 1424.523438 281.300781 C 1424.5 280.09375 1424.378906 278.894531 1424.160156 277.707031 C 1424.054688 277.128906 1423.929688 276.554688 1423.785156 275.992188 C 1423.636719 275.429688 1423.464844 274.878906 1423.277344 274.332031 C 1422.90625 273.246094 1422.472656 272.1875 1421.972656 271.152344 C 1419.972656 267.039062 1417.078125 263.402344 1414.234375 259.859375 C 1413.519531 258.972656 1412.800781 258.101562 1412.105469 257.214844 C 1411.757812 256.773438 1411.421875 256.332031 1411.085938 255.886719 C 1410.746094 255.441406 1410.402344 255.003906 1410.078125 254.558594 C 1409.425781 253.667969 1408.8125 252.761719 1408.234375 251.839844 C 1407.652344 250.929688 1407.117188 249.988281 1406.636719 249.019531 C 1406.160156 248.050781 1405.738281 247.054688 1405.375 246.035156 C 1405.015625 244.992188 1404.734375 243.925781 1404.535156 242.835938 C 1404.316406 241.691406 1404.199219 240.535156 1404.175781 239.371094 C 1404.15625 238.765625 1404.175781 238.140625 1404.203125 237.515625 C 1404.234375 236.886719 1404.292969 236.234375 1404.375 235.570312 C 1404.085938 234.449219 1403.777344 233.335938 1403.4375 232.242188 C 1403.101562 231.144531 1402.722656 230.078125 1402.332031 229.011719 C 1402.136719 228.484375 1401.941406 227.953125 1401.730469 227.429688 C 1401.519531 226.90625 1401.304688 226.386719 1401.085938 225.875 C 1400.640625 224.84375 1400.1875 223.824219 1399.703125 222.820312 C 1398.714844 220.828125 1397.6875 218.867188 1396.539062 216.988281 C 1395.96875 216.042969 1395.394531 215.109375 1394.792969 214.191406 C 1394.1875 213.273438 1393.5625 212.371094 1392.929688 211.480469 C 1392.609375 211.03125 1392.296875 210.585938 1391.972656 210.148438 L 1390.976562 208.839844 C 1390.308594 207.976562 1389.632812 207.117188 1388.9375 206.269531 C 1388.242188 205.425781 1387.527344 204.597656 1386.808594 203.777344 C 1386.449219 203.367188 1386.085938 202.957031 1385.714844 202.546875 L 1384.601562 201.339844 C 1383.855469 200.539062 1383.101562 199.746094 1382.339844 198.960938 C 1381.578125 198.175781 1380.800781 197.402344 1380.003906 196.644531 L 1378.824219 195.5 L 1377.621094 194.375 C 1376.816406 193.628906 1376.007812 192.886719 1375.199219 192.148438 L 1372.726562 189.964844 L 1371.484375 188.882812 L 1370.222656 187.816406 L 1367.699219 185.691406 C 1366.847656 184.996094 1365.996094 184.296875 1365.140625 183.597656 L 1363.867188 182.550781 L 1362.574219 181.515625 L 1360.003906 179.441406 C 1358.285156 178.066406 1356.5625 176.691406 1354.835938 175.3125 C 1353.972656 174.621094 1353.113281 173.925781 1352.261719 173.226562 C 1351.402344 172.535156 1350.542969 171.84375 1349.6875 171.140625 C 1347.996094 169.726562 1346.269531 168.332031 1344.605469 166.875 C 1343.765625 166.160156 1342.921875 165.4375 1342.089844 164.699219 L 1339.609375 162.476562 C 1338.78125 161.726562 1337.964844 160.96875 1337.15625 160.195312 C 1336.351562 159.421875 1335.542969 158.644531 1334.734375 157.867188 L 1335.617188 157.421875 C 1335.300781 156.625 1335.015625 155.746094 1334.722656 154.84375 C 1334.425781 153.941406 1334.132812 153 1333.835938 152.058594 C 1333.535156 151.113281 1333.21875 150.164062 1332.859375 149.261719 C 1332.515625 148.375 1332.125 147.511719 1331.679688 146.671875 C 1330.8125 145.050781 1329.726562 143.722656 1328.324219 142.945312 C 1327.589844 142.535156 1326.800781 142.300781 1325.964844 142.238281 C 1324.960938 142.175781 1323.980469 142.296875 1323.023438 142.597656 C 1323.636719 142.082031 1324.117188 141.460938 1324.460938 140.738281 L 1322.203125 139.929688 L 1319.894531 139.128906 L 1320.769531 138.632812 C 1319.019531 136.863281 1317.179688 135.195312 1315.253906 133.625 C 1315.007812 133.429688 1314.761719 133.238281 1314.511719 133.046875 C 1314.257812 132.863281 1314 132.679688 1313.742188 132.5 C 1313.226562 132.140625 1312.699219 131.792969 1312.160156 131.457031 C 1311.070312 130.78125 1309.949219 130.175781 1308.785156 129.636719 C 1307.589844 129.078125 1306.359375 128.617188 1305.09375 128.25 C 1303.75 127.878906 1302.382812 127.613281 1300.992188 127.457031 C 1299.496094 127.289062 1297.996094 127.238281 1296.492188 127.304688 C 1295.707031 127.339844 1294.902344 127.40625 1294.078125 127.503906 C 1293.257812 127.601562 1292.398438 127.753906 1291.527344 127.925781 C 1292.328125 124.871094 1290.433594 122.734375 1288.460938 120.582031 C 1287.964844 120.046875 1287.46875 119.503906 1286.996094 118.953125 C 1286.519531 118.421875 1286.089844 117.855469 1285.707031 117.253906 C 1284.972656 116.066406 1284.535156 114.75 1284.710938 113.175781 C 1284.109375 112.367188 1283.492188 111.570312 1282.863281 110.789062 C 1282.226562 110.011719 1281.585938 109.230469 1280.902344 108.5 C 1279.546875 107.019531 1278.132812 105.589844 1276.664062 104.210938 C 1275.929688 103.523438 1275.183594 102.84375 1274.421875 102.175781 C 1273.660156 101.515625 1272.867188 100.882812 1272.070312 100.25 C 1270.476562 98.992188 1268.839844 97.777344 1267.160156 96.605469 L 1265.890625 95.730469 C 1265.460938 95.449219 1265.027344 95.167969 1264.589844 94.894531 C 1263.71875 94.339844 1262.839844 93.796875 1261.949219 93.261719 C 1260.171875 92.195312 1258.367188 91.144531 1256.515625 90.152344 C 1254.664062 89.164062 1252.757812 88.226562 1250.84375 87.300781 C 1249.886719 86.839844 1248.925781 86.382812 1247.960938 85.933594 C 1246.988281 85.488281 1246 85.0625 1245.015625 84.636719 C 1243.039062 83.78125 1241.054688 82.945312 1239.050781 82.125 C 1238.058594 81.714844 1237.039062 81.320312 1236.019531 80.929688 L 1232.964844 79.761719 L 1229.90625 78.605469 L 1228.371094 78.03125 L 1226.824219 77.472656 L 1220.625 75.257812 L 1219.078125 74.699219 L 1218.304688 74.425781 L 1217.523438 74.152344 L 1214.40625 73.054688 C 1212.332031 72.328125 1210.269531 71.578125 1208.214844 70.816406 C 1206.140625 70.082031 1204.082031 69.324219 1202.039062 68.546875 C 1201.015625 68.15625 1199.996094 67.757812 1198.984375 67.355469 L 1195.933594 66.160156 C 1195.714844 64.429688 1198.167969 59.777344 1194.523438 58.640625 L 1190.730469 66.222656 C 1190.328125 65.234375 1189.835938 64.289062 1189.257812 63.394531 C 1188.730469 62.585938 1188.125 61.839844 1187.441406 61.15625 C 1186.144531 59.875 1184.675781 58.835938 1183.035156 58.042969 C 1182.230469 57.648438 1181.40625 57.296875 1180.5625 56.992188 C 1179.71875 56.679688 1178.839844 56.425781 1177.964844 56.179688 C 1176.199219 55.695312 1174.394531 55.300781 1172.613281 54.875 C 1171.722656 54.664062 1170.835938 54.441406 1169.964844 54.191406 C 1169.097656 53.941406 1168.226562 53.695312 1167.386719 53.398438 C 1165.699219 52.804688 1164.101562 52.0625 1162.644531 51.042969 C 1161.902344 50.523438 1161.214844 49.941406 1160.578125 49.292969 C 1159.90625 48.609375 1159.296875 47.863281 1158.761719 47.066406 C 1157.640625 45.394531 1156.722656 43.328125 1156.0625 40.738281 C 1153.417969 43.214844 1150.800781 45.679688 1148.179688 48.179688 C 1138.019531 44.996094 1127.78125 41.953125 1117.460938 39.050781 C 1107.128906 36.164062 1096.722656 33.394531 1086.25 30.742188 L 1080.992188 25.382812 C 1079.234375 23.59375 1077.476562 21.796875 1075.6875 20.027344 C 1072.128906 16.472656 1068.554688 12.902344 1064.921875 9.378906 L 1060.59375 9.042969 L 1058.429688 8.878906 L 1056.257812 8.726562 L 1047.589844 8.117188 C 1041.789062 7.746094 1036.015625 7.359375 1030.207031 7.035156 C 1030.066406 4.6875 1029.925781 2.34375 1029.777344 0 Z M 1029.777344 0 " fill-opacity="1" fill-rule="nonzero"/></g><g clip-path="url(#3712f22b3e)"><path fill="#ffc34d" d="M 1077 0 L 1439.964844 0 L 1439.964844 302.667969 C 1439.828125 302.566406 1439.6875 302.449219 1439.550781 302.320312 C 1439.113281 301.90625 1438.703125 301.460938 1438.320312 300.992188 C 1437.882812 300.453125 1437.417969 299.828125 1436.9375 299.128906 L 1436.183594 298.023438 C 1435.925781 297.640625 1435.664062 297.238281 1435.402344 296.820312 C 1435.136719 296.410156 1434.871094 295.972656 1434.601562 295.527344 L 1433.78125 294.160156 C 1433.222656 293.222656 1432.660156 292.246094 1432.109375 291.222656 C 1431.554688 290.203125 1430.96875 289.164062 1430.417969 288.097656 C 1430.144531 287.5625 1429.871094 287.023438 1429.597656 286.484375 C 1429.324219 285.945312 1429.050781 285.402344 1428.777344 284.855469 C 1427.726562 282.667969 1426.691406 280.476562 1425.847656 278.34375 C 1425.40625 277.28125 1425.007812 276.238281 1424.660156 275.21875 C 1424.574219 274.96875 1424.492188 274.714844 1424.410156 274.464844 C 1424.332031 274.214844 1424.246094 273.964844 1424.167969 273.722656 C 1424.015625 273.230469 1423.875 272.75 1423.75 272.28125 C 1423.511719 271.394531 1423.328125 270.5 1423.191406 269.59375 C 1423.066406 268.816406 1423.011719 268.027344 1423.03125 267.238281 C 1423.089844 265.792969 1423.472656 264.609375 1424.265625 263.804688 C 1424.449219 262.535156 1424.535156 261.257812 1424.523438 259.972656 C 1424.5 258.765625 1424.378906 257.566406 1424.160156 256.378906 C 1424.054688 255.796875 1423.929688 255.226562 1423.785156 254.660156 C 1423.636719 254.101562 1423.464844 253.546875 1423.277344 253.003906 C 1422.90625 251.917969 1422.472656 250.859375 1421.972656 249.824219 C 1419.972656 245.707031 1417.078125 242.074219 1414.234375 238.53125 C 1413.519531 237.644531 1412.800781 236.769531 1412.105469 235.886719 C 1411.757812 235.445312 1411.421875 235.003906 1411.085938 234.558594 C 1410.746094 234.113281 1410.402344 233.675781 1410.078125 233.230469 C 1409.425781 232.335938 1408.8125 231.429688 1408.234375 230.511719 C 1407.652344 229.597656 1407.121094 228.65625 1406.640625 227.683594 C 1406.164062 226.714844 1405.742188 225.722656 1405.378906 224.703125 C 1405.019531 223.65625 1404.738281 222.589844 1404.539062 221.5 C 1404.320312 220.355469 1404.203125 219.203125 1404.179688 218.035156 C 1404.160156 217.433594 1404.179688 216.804688 1404.207031 216.179688 C 1404.238281 215.554688 1404.296875 214.902344 1404.378906 214.238281 C 1404.089844 213.113281 1403.78125 212.003906 1403.441406 210.90625 C 1403.105469 209.8125 1402.726562 208.742188 1402.335938 207.679688 C 1402.140625 207.148438 1401.945312 206.617188 1401.734375 206.09375 C 1401.523438 205.570312 1401.308594 205.054688 1401.089844 204.539062 C 1400.644531 203.511719 1400.191406 202.488281 1399.707031 201.488281 C 1398.71875 199.496094 1397.691406 197.53125 1396.542969 195.652344 C 1395.972656 194.710938 1395.398438 193.773438 1394.796875 192.855469 C 1394.191406 191.9375 1393.566406 191.039062 1392.933594 190.144531 C 1392.613281 189.699219 1392.300781 189.25 1391.976562 188.8125 L 1390.980469 187.507812 C 1390.3125 186.640625 1389.636719 185.78125 1388.941406 184.9375 C 1388.25 184.09375 1387.53125 183.265625 1386.8125 182.441406 C 1386.453125 182.03125 1386.09375 181.621094 1385.71875 181.210938 L 1384.605469 180.007812 C 1383.859375 179.207031 1383.105469 178.414062 1382.34375 177.628906 C 1381.582031 176.839844 1380.804688 176.070312 1380.007812 175.3125 L 1378.828125 174.167969 L 1377.628906 173.042969 C 1376.820312 172.296875 1376.011719 171.550781 1375.203125 170.816406 L 1372.730469 168.632812 L 1371.488281 167.550781 L 1370.230469 166.484375 L 1367.703125 164.359375 L 1365.144531 162.265625 L 1363.871094 161.21875 L 1362.578125 160.183594 L 1360.007812 158.109375 C 1358.289062 156.734375 1356.566406 155.359375 1354.839844 153.976562 C 1353.976562 153.289062 1353.121094 152.59375 1352.265625 151.894531 C 1351.40625 151.203125 1350.546875 150.511719 1349.691406 149.808594 C 1348 148.394531 1346.273438 147 1344.609375 145.542969 C 1343.769531 144.824219 1342.925781 144.105469 1342.09375 143.367188 C 1341.265625 142.632812 1340.441406 141.886719 1339.613281 141.144531 C 1338.785156 140.398438 1337.972656 139.636719 1337.164062 138.859375 C 1336.351562 138.082031 1335.535156 137.324219 1334.738281 136.535156 L 1335.621094 136.089844 C 1335.304688 135.292969 1335.019531 134.414062 1334.726562 133.511719 C 1334.433594 132.609375 1334.136719 131.667969 1333.839844 130.726562 C 1333.539062 129.78125 1333.222656 128.832031 1332.863281 127.929688 C 1332.519531 127.042969 1332.128906 126.179688 1331.683594 125.339844 C 1330.816406 123.71875 1329.730469 122.390625 1328.328125 121.613281 C 1327.59375 121.203125 1326.808594 120.964844 1325.96875 120.90625 C 1324.964844 120.84375 1323.984375 120.964844 1323.027344 121.265625 C 1323.640625 120.75 1324.121094 120.128906 1324.46875 119.40625 L 1322.207031 118.597656 L 1319.898438 117.792969 L 1320.773438 117.300781 C 1319.023438 115.53125 1317.183594 113.863281 1315.257812 112.292969 C 1315.011719 112.09375 1314.765625 111.902344 1314.515625 111.710938 C 1314.269531 111.519531 1314.003906 111.34375 1313.746094 111.164062 C 1313.230469 110.804688 1312.703125 110.460938 1312.164062 110.125 C 1311.074219 109.449219 1309.953125 108.839844 1308.789062 108.300781 C 1307.597656 107.746094 1306.367188 107.285156 1305.097656 106.917969 C 1303.753906 106.542969 1302.386719 106.28125 1300.996094 106.121094 C 1299.5 105.953125 1298 105.902344 1296.496094 105.972656 C 1295.710938 106.003906 1294.90625 106.074219 1294.082031 106.171875 C 1293.261719 106.269531 1292.402344 106.417969 1291.53125 106.59375 C 1292.332031 103.535156 1290.4375 101.402344 1288.464844 99.25 C 1287.96875 98.710938 1287.472656 98.167969 1287 97.621094 C 1286.523438 97.089844 1286.09375 96.523438 1285.710938 95.921875 C 1284.976562 94.734375 1284.539062 93.414062 1284.714844 91.84375 C 1284.113281 91.035156 1283.496094 90.238281 1282.867188 89.457031 C 1282.230469 88.675781 1281.589844 87.898438 1280.90625 87.167969 C 1279.550781 85.683594 1278.140625 84.253906 1276.667969 82.875 C 1275.933594 82.1875 1275.1875 81.511719 1274.425781 80.84375 C 1273.664062 80.179688 1272.871094 79.550781 1272.074219 78.917969 C 1270.480469 77.660156 1268.84375 76.445312 1267.164062 75.273438 L 1265.894531 74.398438 C 1265.464844 74.117188 1265.03125 73.835938 1264.59375 73.558594 C 1263.722656 73.003906 1262.84375 72.460938 1261.953125 71.925781 C 1260.175781 70.859375 1258.371094 69.8125 1256.519531 68.820312 C 1254.667969 67.828125 1252.761719 66.890625 1250.847656 65.96875 C 1249.890625 65.503906 1248.929688 65.046875 1247.964844 64.601562 C 1246.992188 64.152344 1246.003906 63.730469 1245.019531 63.300781 C 1243.046875 62.445312 1241.058594 61.609375 1239.058594 60.789062 C 1238.0625 60.375 1237.042969 59.988281 1236.023438 59.597656 L 1232.972656 58.429688 L 1229.910156 57.273438 L 1228.375 56.695312 L 1226.828125 56.140625 L 1220.628906 53.921875 L 1219.082031 53.363281 L 1218.308594 53.089844 L 1217.527344 52.816406 L 1214.410156 51.722656 C 1212.335938 50.992188 1210.273438 50.246094 1208.21875 49.480469 C 1206.144531 48.746094 1204.085938 47.988281 1202.042969 47.210938 C 1201.019531 46.820312 1200 46.425781 1198.988281 46.019531 L 1195.9375 44.824219 C 1195.71875 43.09375 1198.171875 38.441406 1194.527344 37.304688 L 1190.734375 44.886719 C 1190.332031 43.898438 1189.839844 42.957031 1189.261719 42.058594 C 1188.734375 41.25 1188.132812 40.5 1187.453125 39.816406 C 1186.15625 38.539062 1184.6875 37.5 1183.046875 36.707031 C 1182.242188 36.3125 1181.417969 35.960938 1180.574219 35.652344 C 1179.730469 35.34375 1178.851562 35.089844 1177.976562 34.84375 C 1176.210938 34.359375 1174.40625 33.964844 1172.625 33.539062 C 1171.734375 33.328125 1170.847656 33.101562 1169.980469 32.855469 C 1169.109375 32.609375 1168.238281 32.363281 1167.398438 32.0625 C 1165.710938 31.472656 1164.117188 30.726562 1162.65625 29.707031 C 1161.914062 29.191406 1161.226562 28.605469 1160.59375 27.960938 C 1159.917969 27.273438 1159.308594 26.53125 1158.773438 25.730469 C 1157.652344 24.058594 1156.734375 21.992188 1156.074219 19.40625 C 1153.433594 21.878906 1150.8125 24.347656 1148.191406 26.84375 C 1138.03125 23.660156 1127.792969 20.617188 1117.472656 17.714844 C 1107.140625 14.828125 1096.734375 12.058594 1086.261719 9.40625 L 1081.003906 4.046875 C 1079.667969 2.703125 1078.339844 1.34375 1077 0 Z M 1077 0 " fill-opacity="1" fill-rule="nonzero"/></g><g clip-path="url(#a2072264e7)"><path fill="#e6e6e6" d="M 755.183594 995.214844 L 0.0664062 995.214844 L 0.0664062 398.96875 C 0.316406 399.15625 0.570312 399.371094 0.820312 399.613281 C 1.632812 400.375 2.386719 401.1875 3.085938 402.054688 C 3.894531 403.042969 4.75 404.195312 5.640625 405.484375 L 7.023438 407.519531 C 7.496094 408.222656 7.976562 408.960938 8.464844 409.730469 C 8.953125 410.484375 9.441406 411.289062 9.9375 412.109375 L 11.445312 414.625 C 12.476562 416.347656 13.507812 418.152344 14.527344 420.03125 C 15.546875 421.910156 16.625 423.824219 17.636719 425.785156 C 18.136719 426.769531 18.640625 427.757812 19.144531 428.753906 C 19.648438 429.746094 20.152344 430.742188 20.65625 431.746094 C 22.589844 435.777344 24.496094 439.804688 26.050781 443.734375 C 26.867188 445.6875 27.601562 447.609375 28.238281 449.480469 C 28.394531 449.949219 28.550781 450.414062 28.695312 450.875 C 28.839844 451.335938 28.996094 451.789062 29.144531 452.238281 C 29.425781 453.140625 29.683594 454.023438 29.914062 454.890625 C 30.347656 456.519531 30.691406 458.167969 30.941406 459.832031 C 31.171875 461.269531 31.269531 462.714844 31.230469 464.167969 C 31.128906 466.832031 30.421875 469.007812 28.96875 470.488281 C 28.621094 472.828125 28.464844 475.175781 28.492188 477.539062 C 28.53125 479.761719 28.753906 481.96875 29.160156 484.15625 C 29.355469 485.222656 29.582031 486.277344 29.84375 487.316406 C 30.121094 488.347656 30.441406 489.363281 30.78125 490.367188 C 31.464844 492.363281 32.265625 494.316406 33.183594 496.214844 C 36.867188 503.789062 42.195312 510.480469 47.429688 517 C 48.75 518.628906 50.074219 520.238281 51.347656 521.867188 C 51.988281 522.679688 52.605469 523.492188 53.230469 524.308594 C 53.851562 525.128906 54.488281 525.933594 55.078125 526.753906 C 56.28125 528.398438 57.414062 530.066406 58.472656 531.757812 C 59.550781 533.433594 60.53125 535.164062 61.414062 536.949219 C 62.296875 538.734375 63.070312 540.5625 63.738281 542.4375 C 64.402344 544.363281 64.917969 546.324219 65.28125 548.328125 C 65.683594 550.433594 65.90625 552.558594 65.949219 554.703125 C 65.980469 555.816406 65.949219 556.96875 65.894531 558.121094 C 65.839844 559.277344 65.734375 560.476562 65.582031 561.695312 C 66.113281 563.761719 66.683594 565.808594 67.304688 567.824219 C 67.925781 569.84375 68.625 571.808594 69.339844 573.765625 C 69.699219 574.742188 70.058594 575.71875 70.449219 576.679688 C 70.839844 577.644531 71.234375 578.597656 71.640625 579.542969 C 72.457031 581.4375 73.292969 583.320312 74.183594 585.160156 C 76.003906 588.828125 77.890625 592.4375 80.003906 595.898438 C 81.050781 597.632812 82.113281 599.355469 83.222656 601.046875 C 84.332031 602.734375 85.488281 604.390625 86.648438 606.035156 C 87.238281 606.855469 87.8125 607.679688 88.410156 608.484375 L 90.246094 610.886719 C 91.476562 612.484375 92.71875 614.0625 93.996094 615.617188 C 95.277344 617.171875 96.597656 618.695312 97.917969 620.207031 C 98.582031 620.964844 99.246094 621.71875 99.933594 622.472656 L 101.980469 624.691406 C 103.359375 626.167969 104.746094 627.625 106.148438 629.070312 C 107.546875 630.515625 108.980469 631.9375 110.445312 633.332031 L 112.617188 635.441406 L 114.828125 637.507812 C 116.3125 638.882812 117.800781 640.25 119.289062 641.609375 L 123.84375 645.621094 L 126.128906 647.617188 L 128.449219 649.578125 L 133.09375 653.488281 C 134.664062 654.773438 136.234375 656.058594 137.804688 657.339844 L 140.15625 659.269531 L 142.527344 661.175781 L 147.265625 664.992188 C 150.429688 667.519531 153.601562 670.054688 156.78125 672.59375 C 158.367188 673.863281 159.945312 675.140625 161.519531 676.425781 C 163.097656 677.703125 164.683594 678.972656 166.253906 680.265625 C 169.371094 682.871094 172.546875 685.4375 175.609375 688.113281 C 177.160156 689.4375 178.710938 690.761719 180.238281 692.117188 L 184.8125 696.214844 C 186.332031 697.589844 187.835938 698.988281 189.320312 700.414062 C 190.808594 701.835938 192.296875 703.261719 193.785156 704.695312 L 192.15625 705.511719 C 192.738281 706.980469 193.265625 708.597656 193.808594 710.257812 C 194.347656 711.921875 194.890625 713.652344 195.441406 715.386719 C 195.992188 717.121094 196.574219 718.871094 197.234375 720.53125 C 197.867188 722.164062 198.589844 723.75 199.40625 725.296875 C 201.003906 728.28125 203.003906 730.722656 205.585938 732.152344 C 206.9375 732.910156 208.386719 733.34375 209.929688 733.457031 C 211.773438 733.570312 213.582031 733.347656 215.34375 732.792969 C 214.214844 733.742188 213.332031 734.886719 212.691406 736.21875 L 216.851562 737.703125 L 221.105469 739.179688 L 219.492188 740.089844 C 222.710938 743.34375 226.097656 746.417969 229.648438 749.304688 C 230.097656 749.664062 230.550781 750.019531 231.007812 750.375 C 231.476562 750.710938 231.949219 751.046875 232.429688 751.382812 C 233.378906 752.039062 234.351562 752.679688 235.34375 753.292969 C 237.34375 754.539062 239.414062 755.65625 241.550781 756.648438 C 243.75 757.671875 246.015625 758.523438 248.347656 759.199219 C 250.824219 759.882812 253.34375 760.367188 255.898438 760.660156 C 258.652344 760.96875 261.414062 761.0625 264.183594 760.9375 C 265.632812 760.875 267.113281 760.753906 268.625 760.570312 C 270.136719 760.394531 271.722656 760.113281 273.324219 759.792969 C 271.851562 765.417969 275.335938 769.347656 278.96875 773.308594 C 279.882812 774.296875 280.792969 775.296875 281.664062 776.308594 C 282.539062 777.285156 283.332031 778.328125 284.035156 779.433594 C 285.390625 781.621094 286.199219 784.046875 285.871094 786.9375 C 286.976562 788.425781 288.113281 789.890625 289.277344 791.328125 C 290.445312 792.765625 291.628906 794.199219 292.886719 795.546875 C 295.378906 798.269531 297.980469 800.902344 300.6875 803.4375 C 302.039062 804.703125 303.414062 805.953125 304.8125 807.183594 C 306.214844 808.398438 307.675781 809.5625 309.140625 810.726562 C 312.074219 813.042969 315.089844 815.277344 318.183594 817.433594 L 320.519531 819.042969 C 321.308594 819.5625 322.109375 820.074219 322.910156 820.585938 C 324.515625 821.605469 326.136719 822.605469 327.777344 823.589844 C 331.050781 825.554688 334.371094 827.484375 337.78125 829.308594 C 341.1875 831.128906 344.695312 832.855469 348.214844 834.554688 C 349.980469 835.40625 351.75 836.246094 353.523438 837.074219 C 355.3125 837.894531 357.132812 838.675781 358.949219 839.460938 C 362.582031 841.035156 366.242188 842.574219 369.925781 844.082031 C 371.753906 844.839844 373.636719 845.558594 375.503906 846.28125 L 381.128906 848.429688 L 386.765625 850.558594 L 389.585938 851.617188 L 392.4375 852.640625 L 403.851562 856.722656 L 406.699219 857.75 L 408.121094 858.253906 L 409.558594 858.757812 L 415.296875 860.769531 C 419.113281 862.113281 422.914062 863.488281 426.695312 864.890625 C 430.511719 866.246094 434.300781 867.640625 438.066406 869.070312 C 439.949219 869.789062 441.824219 870.519531 443.691406 871.261719 L 449.304688 873.464844 C 449.703125 876.648438 445.191406 885.207031 451.898438 887.296875 L 458.878906 873.34375 C 459.621094 875.167969 460.527344 876.902344 461.597656 878.550781 C 462.566406 880.042969 463.679688 881.414062 464.9375 882.671875 C 467.324219 885.03125 470.027344 886.9375 473.046875 888.398438 C 474.527344 889.128906 476.046875 889.773438 477.601562 890.335938 C 479.152344 890.910156 480.773438 891.378906 482.382812 891.828125 C 485.632812 892.71875 488.953125 893.441406 492.238281 894.226562 C 493.875 894.621094 495.507812 895.027344 497.105469 895.488281 C 498.707031 895.945312 500.3125 896.398438 501.859375 896.945312 C 504.964844 898.039062 507.902344 899.40625 510.585938 901.28125 C 511.953125 902.234375 513.222656 903.308594 514.386719 904.5 C 515.628906 905.761719 516.746094 907.128906 517.738281 908.601562 C 519.796875 911.675781 521.488281 915.480469 522.699219 920.242188 C 527.570312 915.6875 532.390625 911.148438 537.214844 906.554688 C 555.917969 912.410156 574.765625 918.007812 593.765625 923.347656 C 612.789062 928.660156 631.941406 933.757812 651.222656 938.640625 L 660.902344 948.503906 C 664.136719 951.792969 667.375 955.097656 670.664062 958.355469 C 677.21875 964.902344 683.800781 971.46875 690.488281 977.957031 L 698.453125 978.570312 L 702.4375 978.878906 L 706.433594 979.15625 L 722.394531 980.28125 C 733.070312 980.960938 743.699219 981.671875 754.394531 982.269531 C 754.648438 986.585938 754.910156 990.902344 755.183594 995.214844 Z M 755.183594 995.214844 " fill-opacity="1" fill-rule="nonzero"/></g><path fill="#ffc34d" d="M 668.253906 995.214844 L 0.0664062 995.214844 L 0.0664062 438.222656 C 0.316406 438.40625 0.570312 438.621094 0.820312 438.863281 C 1.632812 439.625 2.386719 440.441406 3.085938 441.308594 C 3.894531 442.296875 4.75 443.449219 5.640625 444.738281 L 7.023438 446.769531 C 7.496094 447.476562 7.976562 448.210938 8.464844 448.980469 C 8.953125 449.734375 9.441406 450.542969 9.9375 451.359375 L 11.445312 453.878906 C 12.476562 455.601562 13.507812 457.402344 14.527344 459.28125 C 15.546875 461.160156 16.625 463.074219 17.636719 465.035156 C 18.136719 466.019531 18.640625 467.007812 19.144531 468.003906 C 19.648438 469 20.152344 469.996094 20.65625 471 C 22.589844 475.027344 24.496094 479.054688 26.050781 482.984375 C 26.867188 484.9375 27.601562 486.863281 28.238281 488.734375 C 28.394531 489.199219 28.550781 489.664062 28.695312 490.125 C 28.839844 490.585938 28.996094 491.039062 29.144531 491.488281 C 29.425781 492.390625 29.683594 493.277344 29.914062 494.140625 C 30.347656 495.769531 30.691406 497.417969 30.941406 499.085938 C 31.171875 500.519531 31.269531 501.964844 31.230469 503.421875 C 31.128906 506.082031 30.421875 508.257812 28.96875 509.742188 C 28.621094 512.078125 28.464844 514.429688 28.492188 516.792969 C 28.53125 519.015625 28.753906 521.21875 29.160156 523.40625 C 29.355469 524.472656 29.582031 525.527344 29.84375 526.566406 C 30.121094 527.597656 30.441406 528.617188 30.78125 529.617188 C 31.464844 531.617188 32.265625 533.566406 33.183594 535.46875 C 36.867188 543.042969 42.195312 549.734375 47.429688 556.253906 C 48.75 557.882812 50.074219 559.492188 51.347656 561.117188 C 51.988281 561.929688 52.605469 562.742188 53.230469 563.5625 C 53.851562 564.378906 54.488281 565.1875 55.078125 566.007812 C 56.28125 567.648438 57.414062 569.316406 58.472656 571.011719 C 59.546875 572.6875 60.527344 574.421875 61.40625 576.210938 C 62.289062 577.996094 63.0625 579.824219 63.730469 581.699219 C 64.394531 583.625 64.910156 585.585938 65.277344 587.589844 C 65.675781 589.695312 65.898438 591.824219 65.941406 593.96875 C 65.972656 595.078125 65.941406 596.234375 65.886719 597.382812 C 65.832031 598.535156 65.726562 599.734375 65.574219 600.957031 C 66.105469 603.023438 66.675781 605.070312 67.296875 607.085938 C 67.917969 609.101562 68.617188 611.070312 69.332031 613.027344 C 69.691406 614.003906 70.050781 614.984375 70.441406 615.945312 C 70.832031 616.90625 71.226562 617.859375 71.632812 618.804688 C 72.449219 620.699219 73.285156 622.578125 74.175781 624.421875 C 75.996094 628.089844 77.882812 631.699219 79.996094 635.160156 C 81.046875 636.894531 82.105469 638.617188 83.214844 640.308594 C 84.324219 641.996094 85.480469 643.652344 86.640625 645.296875 C 87.230469 646.117188 87.804688 646.941406 88.402344 647.746094 L 90.238281 650.148438 C 91.46875 651.742188 92.710938 653.324219 93.988281 654.878906 C 95.269531 656.433594 96.589844 657.957031 97.910156 659.46875 C 98.578125 660.226562 99.238281 660.980469 99.925781 661.734375 L 101.972656 663.953125 C 103.351562 665.425781 104.738281 666.882812 106.140625 668.332031 C 107.542969 669.777344 108.972656 671.199219 110.4375 672.589844 L 112.609375 674.699219 L 114.820312 676.769531 C 116.304688 678.144531 117.792969 679.511719 119.28125 680.867188 L 123.835938 684.882812 L 126.121094 686.875 L 128.441406 688.835938 L 133.085938 692.75 L 137.796875 696.601562 L 140.148438 698.53125 L 142.523438 700.433594 L 147.257812 704.25 C 150.421875 706.777344 153.59375 709.3125 156.773438 711.851562 C 158.359375 713.121094 159.9375 714.398438 161.511719 715.683594 C 163.089844 716.960938 164.675781 718.230469 166.246094 719.523438 C 169.363281 722.128906 172.539062 724.695312 175.601562 727.375 C 177.152344 728.695312 178.703125 730.023438 180.230469 731.378906 C 181.761719 732.730469 183.277344 734.105469 184.804688 735.472656 C 186.328125 736.839844 187.824219 738.242188 189.3125 739.671875 C 190.804688 741.101562 192.308594 742.503906 193.777344 743.953125 L 192.148438 744.769531 C 192.730469 746.238281 193.257812 747.859375 193.800781 749.519531 C 194.339844 751.175781 194.882812 752.910156 195.433594 754.644531 C 195.984375 756.378906 196.566406 758.128906 197.226562 759.792969 C 197.859375 761.421875 198.582031 763.011719 199.398438 764.554688 C 200.996094 767.539062 202.996094 769.980469 205.578125 771.414062 C 206.929688 772.167969 208.378906 772.601562 209.921875 772.714844 C 211.769531 772.828125 213.574219 772.609375 215.335938 772.050781 C 214.207031 773.003906 213.324219 774.144531 212.683594 775.476562 L 216.84375 776.964844 L 221.097656 778.441406 L 219.484375 779.347656 C 222.703125 782.601562 226.089844 785.675781 229.640625 788.566406 C 230.089844 788.929688 230.542969 789.28125 231 789.632812 C 231.460938 789.984375 231.941406 790.308594 232.421875 790.640625 C 233.371094 791.300781 234.34375 791.9375 235.335938 792.554688 C 237.335938 793.796875 239.40625 794.914062 241.542969 795.90625 C 243.742188 796.933594 246.007812 797.78125 248.339844 798.457031 C 250.816406 799.140625 253.335938 799.628906 255.890625 799.917969 C 258.644531 800.230469 261.40625 800.320312 264.175781 800.195312 C 265.625 800.132812 267.105469 800.011719 268.617188 799.828125 C 270.128906 799.652344 271.714844 799.371094 273.316406 799.054688 C 271.84375 804.679688 275.328125 808.605469 278.960938 812.570312 C 279.875 813.558594 280.785156 814.554688 281.65625 815.566406 C 282.535156 816.542969 283.324219 817.585938 284.027344 818.695312 C 285.382812 820.878906 286.191406 823.304688 285.863281 826.199219 C 286.96875 827.683594 288.105469 829.148438 289.269531 830.589844 C 290.4375 832.023438 291.621094 833.457031 292.878906 834.804688 C 295.371094 837.53125 297.972656 840.164062 300.679688 842.699219 C 302.03125 843.964844 303.40625 845.210938 304.804688 846.441406 C 306.207031 847.660156 307.667969 848.824219 309.132812 849.984375 C 312.066406 852.300781 315.082031 854.535156 318.175781 856.695312 L 320.511719 858.304688 C 321.300781 858.820312 322.105469 859.335938 322.902344 859.84375 C 324.507812 860.863281 326.128906 861.867188 327.769531 862.847656 C 331.042969 864.8125 334.363281 866.742188 337.773438 868.566406 C 341.179688 870.390625 344.6875 872.113281 348.207031 873.8125 C 349.972656 874.667969 351.742188 875.507812 353.515625 876.332031 C 355.304688 877.152344 357.125 877.933594 358.941406 878.722656 C 362.574219 880.296875 366.234375 881.835938 369.917969 883.34375 C 371.746094 884.109375 373.628906 884.816406 375.5 885.539062 L 381.121094 887.6875 L 386.757812 889.816406 L 389.578125 890.875 L 392.429688 891.902344 L 403.84375 895.980469 L 406.691406 897.011719 L 408.113281 897.515625 L 409.550781 898.015625 L 415.289062 900.03125 C 419.105469 901.375 422.90625 902.75 426.6875 904.152344 C 430.503906 905.507812 434.292969 906.902344 438.058594 908.335938 C 439.941406 909.050781 441.816406 909.777344 443.683594 910.523438 L 449.296875 912.726562 C 449.695312 915.914062 445.183594 924.46875 451.890625 926.558594 L 458.875 912.605469 C 459.613281 914.429688 460.519531 916.164062 461.589844 917.816406 C 462.554688 919.304688 463.664062 920.679688 464.917969 921.9375 C 467.304688 924.292969 470.007812 926.203125 473.023438 927.664062 C 474.507812 928.394531 476.023438 929.039062 477.578125 929.601562 C 479.128906 930.175781 480.75 930.640625 482.359375 931.09375 C 485.613281 931.980469 488.933594 932.707031 492.214844 933.492188 C 493.851562 933.882812 495.484375 934.296875 497.085938 934.75 C 498.683594 935.207031 500.289062 935.660156 501.835938 936.207031 C 504.941406 937.300781 507.878906 938.671875 510.5625 940.542969 C 511.929688 941.496094 513.199219 942.570312 514.363281 943.761719 C 515.605469 945.023438 516.722656 946.390625 517.714844 947.863281 C 519.777344 950.9375 521.464844 954.742188 522.679688 959.503906 C 527.546875 954.949219 532.367188 950.410156 537.195312 945.816406 C 555.894531 951.671875 574.742188 957.269531 593.742188 962.609375 C 612.765625 967.921875 631.917969 973.019531 651.203125 977.902344 L 660.878906 987.765625 C 663.335938 990.242188 665.78125 992.738281 668.253906 995.214844 Z M 668.253906 995.214844 " fill-opacity="1" fill-rule="nonzero"/></svg>